<svg xmlns="http://www.w3.org/2000/svg" viewBox="0 0 1936.54 1822.15"><path fill="#7eddff" d="M72.53,267H590.45V931.85H72.53V267Z"/><path fill="#332e2e" d="M590.45,934.9H72.53a3,3,0,0,1-3-3V267a3,3,0,0,1,3-3.05H590.45a3.06,3.06,0,0,1,3,3.05V931.85A3,3,0,0,1,590.45,934.9ZM75.58,928.8H587.4V270.09H75.58Z"/><path fill="#d0f36f" d="M262.45,363.15H211a4.63,4.63,0,0,1-4.62-4.62h0a4.63,4.63,0,0,1,4.62-4.61h47a4.63,4.63,0,0,1,4.62,4.61v4.2C262.87,362.94,262.66,363.15,262.45,363.15Z"/><path fill="#fff" d="M273.78,382h-47a4.63,4.63,0,0,1-4.61-4.62h0a4.63,4.63,0,0,1,4.61-4.62h47a4.63,4.63,0,0,1,4.62,4.62h0A4.63,4.63,0,0,1,273.78,382Z"/><path fill="#e0eded" d="M430.12,405.12H253a4.63,4.63,0,0,1-4.62-4.61h0a4.63,4.63,0,0,1,4.62-4.62H430.12a4.63,4.63,0,0,1,4.62,4.62h0A4.63,4.63,0,0,1,430.12,405.12Z"/><path fill="#e0eded" d="M470,453H288.68a4.63,4.63,0,0,1-4.62-4.62h0a4.63,4.63,0,0,1,4.62-4.62H465.8a4.63,4.63,0,0,1,4.61,4.62v4.2C470.62,452.55,470.41,453,470,453Z"/><path fill="#e0eded" d="M543.65,473.53h-255a4.63,4.63,0,0,1-4.62-4.61h0a4.63,4.63,0,0,1,4.62-4.62h255a4.63,4.63,0,0,1,4.62,4.62h0A4.63,4.63,0,0,1,543.65,473.53Z"/><path fill="#e0eded" d="M347.44,494.31H288.68a4.63,4.63,0,0,1-4.62-4.62h0a4.63,4.63,0,0,1,4.62-4.61h54.56a4.63,4.63,0,0,1,4.62,4.61v4.2C348.07,494.1,347.86,494.31,347.44,494.31Z"/><path fill="#d0f36f" d="M545.75,452.34h-63a.45.45,0,0,1-.42-.42v-8.39a.45.45,0,0,1,.42-.42h63a.45.45,0,0,1,.42.42v8.39A.45.45,0,0,1,545.75,452.34Z"/><path fill="#d0f36f" d="M510.5,563.56h-63a.45.45,0,0,1-.42-.42v-8.39a.45.45,0,0,1,.42-.42h63a.45.45,0,0,1,.41.42v8.39C511.12,563.35,510.91,563.56,510.5,563.56Z"/><path fill="#fff" d="M445.23,494.31H364.86a4.63,4.63,0,0,1-4.62-4.62h0a4.63,4.63,0,0,1,4.62-4.61H441a4.63,4.63,0,0,1,4.62,4.61v4.2C445.86,494.1,445.65,494.31,445.23,494.31Z"/><path fill="#e0eded" d="M530.85,429.67H253a4.63,4.63,0,0,1-4.62-4.61h0a4.63,4.63,0,0,1,4.62-4.62H526.65a4.63,4.63,0,0,1,4.62,4.62v4.2C531.48,429.47,531.27,429.67,530.85,429.67Z"/><path fill="#d0f36f" d="M262.45,520.54H211a4.63,4.63,0,0,1-4.62-4.62h0a4.63,4.63,0,0,1,4.62-4.61h47a4.63,4.63,0,0,1,4.62,4.61v4.2C262.87,520.33,262.66,520.54,262.45,520.54Z"/><path fill="#fff" d="M273.78,539.43h-47a4.63,4.63,0,0,1-4.61-4.62h0a4.63,4.63,0,0,1,4.61-4.62h47a4.63,4.63,0,0,1,4.62,4.62h0A4.63,4.63,0,0,1,273.78,539.43Z"/><path fill="#e0eded" d="M430.12,562.51H253a4.63,4.63,0,0,1-4.62-4.62h0a4.63,4.63,0,0,1,4.62-4.61H430.12a4.63,4.63,0,0,1,4.62,4.61h0A4.63,4.63,0,0,1,430.12,562.51Z"/><path fill="#e0eded" d="M530.85,587.06H253a4.63,4.63,0,0,1-4.62-4.61h0a4.63,4.63,0,0,1,4.62-4.62H526.65a4.63,4.63,0,0,1,4.62,4.62v4.19C531.48,586.85,531.27,587.06,530.85,587.06Z"/><path fill="#fff" d="M188,611.83h5.25a.45.45,0,0,0,.42-.42V336.71a.45.45,0,0,0-.42-.42H188a.45.45,0,0,0-.42.42v274.7A.45.45,0,0,0,188,611.83Z"/><path fill="#fff" d="M176.62,351.82H111.78a3.58,3.58,0,0,1-3.57-3.57h0a3.58,3.58,0,0,1,3.57-3.57h64.84a3.59,3.59,0,0,1,3.57,3.57h0A3.59,3.59,0,0,1,176.62,351.82Z"/><path fill="#fff" d="M177.25,471H112.41a3.58,3.58,0,0,1-3.57-3.57h0a3.58,3.58,0,0,1,3.56-3.57h64.85a3.59,3.59,0,0,1,3.57,3.57h0A3.59,3.59,0,0,1,177.25,471Z"/><path fill="#fff" d="M175.78,417.29H110.94a3.57,3.57,0,0,1-3.57-3.56h0a3.57,3.57,0,0,1,3.57-3.57h64.84a3.58,3.58,0,0,1,3.57,3.57h0A3.58,3.58,0,0,1,175.78,417.29Z"/><path fill="#fff" d="M175.36,488.85H110.52a3.57,3.57,0,0,1-3.57-3.56h0a3.57,3.57,0,0,1,3.57-3.57h64.84a3.58,3.58,0,0,1,3.57,3.57h0A3.58,3.58,0,0,1,175.36,488.85Z"/><path fill="#fff" d="M178.3,569.65H113.45a3.58,3.58,0,0,1-3.56-3.57h0a3.58,3.58,0,0,1,3.56-3.57H178.3a3.59,3.59,0,0,1,3.57,3.57h0A3.59,3.59,0,0,1,178.3,569.65Z"/><path fill="#fff" d="M160.67,591.68H113.45a3.57,3.57,0,0,1-3.56-3.57h0a3.57,3.57,0,0,1,3.56-3.56h47.22a3.58,3.58,0,0,1,3.57,3.56h0A3.58,3.58,0,0,1,160.67,591.68Z"/><path fill="#fff" d="M176.62,370.08H150a3.59,3.59,0,0,1-3.57-3.57v-.42a3.59,3.59,0,0,1,3.57-3.57h26.65a3.59,3.59,0,0,1,3.57,3.57v.42A3.59,3.59,0,0,1,176.62,370.08Z"/><path fill="#fff" d="M147,432.82h-29.8a3.58,3.58,0,0,1-3.57-3.56v-.42a3.58,3.58,0,0,1,3.57-3.57h26.65a3.57,3.57,0,0,1,3.57,3.57v3.56C147.24,432.61,147.24,432.82,147,432.82Z"/><path fill="#d0f36f" d="M262.45,660.51H211a4.63,4.63,0,0,1-4.62-4.61h0a4.63,4.63,0,0,1,4.62-4.62h47a4.63,4.63,0,0,1,4.62,4.62v4.19C262.87,660.3,262.66,660.51,262.45,660.51Z"/><path fill="#fff" d="M278,679.4H226.77a4.63,4.63,0,0,1-4.61-4.62h0a4.62,4.62,0,0,1,4.61-4.61h47a4.63,4.63,0,0,1,4.62,4.61V679S278.19,679.4,278,679.4Z"/><path fill="#e0eded" d="M430.12,702.48H253a4.63,4.63,0,0,1-4.62-4.61h0a4.63,4.63,0,0,1,4.62-4.62H430.12a4.63,4.63,0,0,1,4.62,4.62h0A4.63,4.63,0,0,1,430.12,702.48Z"/><path fill="#e0eded" d="M470,750.12H288.68a4.63,4.63,0,0,1-4.62-4.62h0a4.63,4.63,0,0,1,4.62-4.61H465.8a4.62,4.62,0,0,1,4.61,4.61v4.2C470.62,749.91,470.41,750.12,470,750.12Z"/><path fill="#e0eded" d="M543.65,770.9h-255a4.63,4.63,0,0,1-4.62-4.62h0a4.63,4.63,0,0,1,4.62-4.62h255a4.63,4.63,0,0,1,4.62,4.62h0A4.63,4.63,0,0,1,543.65,770.9Z"/><path fill="#e0eded" d="M347.44,791.46H288.68a4.63,4.63,0,0,1-4.62-4.62h0a4.63,4.63,0,0,1,4.62-4.61h54.56a4.63,4.63,0,0,1,4.62,4.61V791C348.07,791.25,347.86,791.46,347.44,791.46Z"/><path fill="#d0f36f" d="M541.55,749.49H487a4.63,4.63,0,0,1-4.62-4.62h0a4.63,4.63,0,0,1,4.62-4.61h54.56a4.63,4.63,0,0,1,4.62,4.61h0A4.63,4.63,0,0,1,541.55,749.49Z"/><path fill="#d0f36f" d="M510.5,860.92H451.74a4.63,4.63,0,0,1-4.62-4.61h0a4.63,4.63,0,0,1,4.62-4.61H506.3a4.62,4.62,0,0,1,4.61,4.61v4.2C511.12,860.71,510.91,860.92,510.5,860.92Z"/><path fill="#fff" d="M445.23,791.46H364.86a4.63,4.63,0,0,1-4.62-4.62h0a4.63,4.63,0,0,1,4.62-4.61H441a4.63,4.63,0,0,1,4.62,4.61V791C445.86,791.25,445.65,791.46,445.23,791.46Z"/><path fill="#e0eded" d="M530.85,727H253a4.63,4.63,0,0,1-4.62-4.62h0A4.63,4.63,0,0,1,253,717.8H526.65a4.63,4.63,0,0,1,4.62,4.62v4.2C531.48,726.83,531.27,727,530.85,727Z"/><path fill="#d0f36f" d="M262.45,817.9H211a4.63,4.63,0,0,1-4.62-4.61h0a4.63,4.63,0,0,1,4.62-4.62h47a4.63,4.63,0,0,1,4.62,4.61v4.2C262.87,817.69,262.66,817.9,262.45,817.9Z"/><path fill="#fff" d="M278,836.79H226.77a4.63,4.63,0,0,1-4.61-4.62h0a4.62,4.62,0,0,1,4.61-4.61h47a4.63,4.63,0,0,1,4.62,4.61v4.2S278.19,836.79,278,836.79Z"/><path fill="#e0eded" d="M430.12,859.87H253a4.63,4.63,0,0,1-4.62-4.61h0a4.63,4.63,0,0,1,4.62-4.62H430.12a4.63,4.63,0,0,1,4.62,4.62h0A4.63,4.63,0,0,1,430.12,859.87Z"/><path fill="#e0eded" d="M530.85,884.43H253a4.63,4.63,0,0,1-4.62-4.62h0a4.63,4.63,0,0,1,4.62-4.62H526.65a4.63,4.63,0,0,1,4.62,4.62V884C531.48,884.22,531.27,884.43,530.85,884.43Z"/><path fill="#fff" d="M188,909h5.25a.45.45,0,0,0,.42-.42V633.86a.45.45,0,0,0-.42-.42H188a.45.45,0,0,0-.42.42v274.7C187.53,909,187.74,909,188,909Z"/><path fill="#fff" d="M176.62,649.18H111.78a3.57,3.57,0,0,1-3.57-3.57h0a3.57,3.57,0,0,1,3.57-3.56h64.84a3.58,3.58,0,0,1,3.57,3.56h0A3.58,3.58,0,0,1,176.62,649.18Z"/><path fill="#fff" d="M177.25,768.38H112.41a3.58,3.58,0,0,1-3.57-3.57h0a3.58,3.58,0,0,1,3.56-3.57h64.85a3.59,3.59,0,0,1,3.57,3.57h0A3.59,3.59,0,0,1,177.25,768.38Z"/><path fill="#fff" d="M175.78,714.65H110.94a3.57,3.57,0,0,1-3.57-3.56h0a3.57,3.57,0,0,1,3.57-3.57h64.84a3.58,3.58,0,0,1,3.57,3.57h0A3.58,3.58,0,0,1,175.78,714.65Z"/><path fill="#fff" d="M175.36,786.21H110.52a3.57,3.57,0,0,1-3.57-3.56h0a3.57,3.57,0,0,1,3.57-3.57h64.84a3.58,3.58,0,0,1,3.57,3.57h0A3.58,3.58,0,0,1,175.36,786.21Z"/><path fill="#fff" d="M181.45,867H110.31a.45.45,0,0,1-.42-.42v-6.3a.45.45,0,0,1,.42-.42h71.14a.45.45,0,0,1,.42.42v6.3A.45.45,0,0,1,181.45,867Z"/><path fill="#fff" d="M163.82,889H110.31a.45.45,0,0,1-.42-.42v-6.29a.45.45,0,0,1,.42-.42h53.51a.45.45,0,0,1,.42.42v6.29A.45.45,0,0,1,163.82,889Z"/><path fill="#fff" d="M176.62,667.44H150a3.59,3.59,0,0,1-3.57-3.57v-.42a3.59,3.59,0,0,1,3.57-3.57h26.65a3.59,3.59,0,0,1,3.57,3.57v.42A3.59,3.59,0,0,1,176.62,667.44Z"/><path fill="#fff" d="M147,730.18h-29.8a3.58,3.58,0,0,1-3.57-3.56v-.42a3.58,3.58,0,0,1,3.57-3.57h26.65a3.57,3.57,0,0,1,3.57,3.57v3.56C147.24,730,147.24,730.18,147,730.18Z"/><rect width="518.25" height="43.7" x="72.2" y="262.13" fill="#272727"/><path fill="#272727" d="M590.45,307.36H72.2a1.53,1.53,0,0,1-1.53-1.53V262.14a1.53,1.53,0,0,1,1.53-1.53H590.45a1.52,1.52,0,0,1,1.52,1.53v43.69A1.52,1.52,0,0,1,590.45,307.36ZM73.72,304.31h515.2V263.66H73.72Z"/><circle cx="70.35" cy="281.06" r="35.69" fill="#ffbc8b" transform="rotate(-45 70.353 281.069)"/><path fill="#303030" d="M70.35,319.8a38.74,38.74,0,1,1,38.74-38.74A38.77,38.77,0,0,1,70.35,319.8Zm0-71.38A32.65,32.65,0,1,0,103,281.06,32.68,32.68,0,0,0,70.35,248.42Z"/><path fill="#303030" d="M52.91,299.12a3.05,3.05,0,0,1-2.15-5.21l32.85-32.85a3,3,0,0,1,4.31,4.31L55.07,298.23A3.06,3.06,0,0,1,52.91,299.12Z"/><path fill="#303030" d="M85.77,299.12a3.08,3.08,0,0,1-2.16-.89L50.76,265.37a3,3,0,0,1,4.31-4.31l32.85,32.85a3.05,3.05,0,0,1-2.15,5.21Z"/><rect width="330.24" height="146.98" x="1080.13" y="218.77" fill="#d0f36f" rx="29.26"/><path fill="#332e2e" d="M1377.75,368.79h-265a35.71,35.71,0,0,1-35.67-35.68V251.4a35.71,35.71,0,0,1,35.67-35.68h265a35.72,35.72,0,0,1,35.68,35.68v81.71A35.72,35.72,0,0,1,1377.75,368.79Zm-265-147a29.61,29.61,0,0,0-29.58,29.58v81.71a29.61,29.61,0,0,0,29.58,29.58h265a29.61,29.61,0,0,0,29.58-29.58V251.4a29.61,29.61,0,0,0-29.58-29.58Z"/><path fill="#303030" d="M1169.8,300.2a45.64,45.64,0,0,1-.57,7.35,30.73,30.73,0,0,1-2.19,7.23,21.38,21.38,0,0,1-4.22,6.46,19.2,19.2,0,0,1-7,4.43,28.33,28.33,0,0,1-10.25,1.72,25.07,25.07,0,0,1-15.47-4.8,22.51,22.51,0,0,1-8.49-12.49l15.73-5.31a9.19,9.19,0,0,0,2.65,4.68,6.77,6.77,0,0,0,4.74,1.77c2.71,0,4.59-.93,5.63-2.81s1.56-4.58,1.56-8.12V251.67h17.91Z"/><path fill="#303030" d="M1190.94,289.89l-8.64-9.26q9.27-8.76,23.12-8.75,12.81,0,18.33,6.51t5.51,20.88v26.14h-15.62v-5.52h-.31a12.68,12.68,0,0,1-5.94,4.94,21,21,0,0,1-8.74,1.83,25.77,25.77,0,0,1-8.6-1.41,16,16,0,0,1-7.13-5.26,14.73,14.73,0,0,1-3.12-9.58q0-17.49,33.32-17.49v-.84a6.51,6.51,0,0,0-2.6-5.57,11.13,11.13,0,0,0-6.77-1.93A18.4,18.4,0,0,0,1190.94,289.89Zm22.7,14.69v-1.77h-2.18q-15.95,0-15.94,7.08a4.34,4.34,0,0,0,2.19,4,10,10,0,0,0,5.21,1.3q5.1,0,7.91-2.86A10.58,10.58,0,0,0,1213.64,304.58Z"/><path fill="#303030" d="M1294.46,273.54l-20.41,51.87h-18.44l-20.41-51.87h18.85L1265,307.18h.31l10.93-33.64Z"/><path fill="#303030" d="M1308.93,289.89l-8.64-9.26q9.27-8.76,23.12-8.75,12.81,0,18.33,6.51t5.52,20.88v26.14h-15.62v-5.52h-.32a12.7,12.7,0,0,1-5.93,4.94,21.08,21.08,0,0,1-8.75,1.83,25.67,25.67,0,0,1-8.59-1.41,16.06,16.06,0,0,1-7.14-5.26,14.73,14.73,0,0,1-3.12-9.58q0-17.49,33.32-17.49v-.84a6.51,6.51,0,0,0-2.6-5.57,11.13,11.13,0,0,0-6.77-1.93A18.4,18.4,0,0,0,1308.93,289.89Zm22.71,14.69v-1.77h-2.19q-15.93,0-15.94,7.08a4.34,4.34,0,0,0,2.19,4,10,10,0,0,0,5.21,1.3q5.1,0,7.91-2.86A10.59,10.59,0,0,0,1331.64,304.58Z"/><rect width="307.78" height="136.98" x="726.69" y="50.21" fill="#ff515a" rx="24.42"/><path fill="#332e2e" d="M1014.66,190.24H746.51a22.89,22.89,0,0,1-22.86-22.87V70a22.89,22.89,0,0,1,22.86-22.87h268.15A22.9,22.9,0,0,1,1037.53,70v97.34A22.9,22.9,0,0,1,1014.66,190.24Zm-268.15-137A16.79,16.79,0,0,0,729.74,70v97.34a16.79,16.79,0,0,0,16.77,16.77h268.15a16.79,16.79,0,0,0,16.77-16.77V70a16.79,16.79,0,0,0-16.77-16.77Z"/><path fill="#303030" d="M804.73,98.86a15.25,15.25,0,0,1-3,9.67,15.72,15.72,0,0,1-7.51,5.39,32.2,32.2,0,0,1-10.37,1.53h-6.32V135.3H764.8V82.65h19.33q9.38,0,15,3.83T804.73,98.86ZM792,98.94q0-6-8.93-6h-5.57v12.42h5.35Q792,105.33,792,98.94Z"/><path fill="#303030" d="M846.08,98.27,829.5,140.88q-2.38,6.24-6,9.26t-10.26,3a27.24,27.24,0,0,1-6.69-.82l1.34-10.26a13.56,13.56,0,0,0,3.94.67,5.93,5.93,0,0,0,4-1.15,9.36,9.36,0,0,0,2.26-3.83l1.19-3L803.77,98.27H817.3l8.26,23.79h.22l7.36-23.79Z"/><path fill="#303030" d="M872.7,107.42H864v14.12a6.15,6.15,0,0,0,1,3.94,4.38,4.38,0,0,0,3.57,1.27,9.17,9.17,0,0,0,3.57-.6l.15,8.93a20.62,20.62,0,0,1-7.07,1.11q-7.07,0-10.11-3.42t-3-9.74V107.42h-6V98.27H852V88.53h12v9.74h8.7Z"/><path fill="#303030" d="M915.09,135.3H902.82V115.22q0-7.8-5.43-7.8a5.87,5.87,0,0,0-4.84,2.23,8.8,8.8,0,0,0-1.78,5.65v20h-12.2V79.08h12.2V103h.15a11.18,11.18,0,0,1,4.16-4,12.52,12.52,0,0,1,6.47-1.67q7,0,10.26,4.42a17.52,17.52,0,0,1,3.28,10.75Z"/><path fill="#303030" d="M957.62,102.43q6,5.35,6,14.21t-6,14.35a22.15,22.15,0,0,1-29.22,0q-6-5.51-5.95-14.35t5.95-14.21a22.62,22.62,0,0,1,29.22,0Zm-5.8,14.21a9.93,9.93,0,0,0-2.38-6.62,8,8,0,0,0-6.47-2.83,7.83,7.83,0,0,0-6.39,2.79,10.11,10.11,0,0,0-2.31,6.66,10.33,10.33,0,0,0,2.34,6.73,8.67,8.67,0,0,0,12.87,0A10.33,10.33,0,0,0,951.82,116.64Z"/><path fill="#303030" d="M1007.89,135.3H995.62V115.07q0-7.8-5.5-7.8a5.65,5.65,0,0,0-4.83,2.3,9.23,9.23,0,0,0-1.72,5.65V135.3H971.31v-37h11.82v5.13h.15A11,11,0,0,1,987.63,99a13,13,0,0,1,6.73-1.78q6.92,0,10.22,4.42a17.41,17.41,0,0,1,3.31,10.75Z"/><rect width="1012.39" height="450.29" x="259.9" y="1017.05" fill="#303030"/><path fill="#303030" d="M1414.26,1570.09a151.09,151.09,0,0,1-144.71-107.84l-123-411.57a21.52,21.52,0,0,0-9-1.86l-547.83,9a20.75,20.75,0,0,0-17.08,9.47A150.15,150.15,0,0,1,560,1084.14l-230.6,266.13V1476.4H151.1A151.1,151.1,0,0,1,36.91,1226.35L325.78,893a322.37,322.37,0,0,1,259-137.31l547.84-9c90.47-1.54,175.25,34.14,236.65,97.42l42-283.35,223.63,93.69-39.28,806.88c-13,68.48-103.91,105-173.51,108.6C1419.51,1570,1416.87,1570.09,1414.26,1570.09Z"/><path fill="#ac6a6f" d="M1139.39,423.17c16.35-96.81-151.08-178.6-254.13-175s-141.72,50.85-141.72,50.85-85.33,13.56-95.16,110.7c-6.23,61.6,9.87,102.19,22.48,123.64,1.29,7.69,2.89,15.64,4.88,23.83,23.59,97.3,49,141.72,83.16,153.43s138.29-86.55,138.29-86.55l13.34-82.93,158.92-7.45S1123,520,1139.39,423.17Z"/><path fill="#332e2e" d="M765.14,714.64a22,22,0,0,1-7.23-1.1c-36.24-12.44-61.7-59-85.14-155.59-1.88-7.76-3.5-15.66-4.82-23.5-13.78-23.62-28.74-64.37-22.6-125,5.2-51.34,31.45-79.44,52.57-94a123.22,123.22,0,0,1,44-19.22c6-6.76,46.46-47.67,143.22-51.09,35.78-1.24,80.45,7.79,122.61,24.83,44.33,17.92,81.93,42.85,105.88,70.19,23.51,26.82,33.45,55.7,28.75,83.49-16.49,97.64-69.92,112.43-72.18,113a3.21,3.21,0,0,1-.62.1l-156.44,7.33L900.2,624.59a3.06,3.06,0,0,1-.92,1.73c-.26.25-26.51,24.94-56.6,47.88C807.41,701.08,781.39,714.64,765.14,714.64ZM892.43,251.13c-2.38,0-4.73,0-7.07.13C785.12,254.8,746.27,300.53,745.89,301a3.09,3.09,0,0,1-1.87,1.08c-.21,0-21.11,3.52-42.86,18.57-29,20.09-45.77,50.17-49.75,89.42-6,59.41,8.69,99,22.08,121.79a3,3,0,0,1,.38,1c1.31,7.87,2.94,15.82,4.83,23.61,22.57,93.09,47.61,139.74,81.19,151.26C786.2,716.82,865.11,650,894.34,622.6l13.18-81.91a3.05,3.05,0,0,1,2.87-2.56L1069,530.7c4-1.22,52.23-18,67.43-108l3,.51-3-.51c4.44-26.3-4.75-52.7-27.32-78.47C1063.26,291.91,967.56,251.13,892.43,251.13Z"/><path fill="#ffb9c5" d="M1093,555.23s15.29-26.83,35.73-21.28,61.74,102.86-40.71,109.63S1093,555.23,1093,555.23Z"/><path fill="#332e2e" d="M1078.06,647c-20.1,0-31.9-4.78-36-14.5-10.56-25.3,40.86-72.42,48.48-79.21,2.26-3.77,17.74-28,38.91-22.27,12.48,3.39,30.58,34.67,27.66,63.92-1.77,17.73-13.08,48-69,51.7Q1082.82,647,1078.06,647Zm45.09-110.73c-15.6,0-27.4,20.27-27.53,20.5a3.54,3.54,0,0,1-.63.77c-15.75,14-55,54.19-47.26,72.62,3.47,8.3,17.32,11.89,40.06,10.39,48.83-3.22,61.38-26.91,63.3-46.21,2.67-26.74-13.92-54.92-23.19-57.43A18,18,0,0,0,1123.15,536.25Zm-30.18,19h0Z"/><path fill="#ffb9c5" d="M1052.5,736.37c-9.22,10-21.3,17.94-35,23.75a131.87,131.87,0,0,1-42.31,9.79c-8.13.55-18.36,1.19-25.44,1.41l-.29,0-.61,19.21,0,.51,55.66,4.29s-26.8,123-105.49,122.09C777.17,916.09,727.58,791,727.58,791l54.26-12.76s3.57-24.11,6.87-51.59C753.6,700,739,672.23,738.26,670.79l0,0S694,701,644.92,653.47c-36.89-35.76-27.9-103.53,26.82-111s64.63,31.65,82.49,32.19c9.27.28,10.39-28.41,10.2-61.39,15.41-3.36,42.33-21,47.73-101.75,0,0,72.38,74.75,135.32,68,46.1-4.94,7.14-71.65,6.11-73.4,1.45,1.87,59.83,77,132.07,56.92a51.34,51.34,0,0,0,9.42-3.56C1111.73,552,1115.92,667.42,1052.5,736.37Z"/><path fill="#332e2e" d="M899.82,920.53h-.88c-64-.73-108-35.64-133.63-64.8-27.66-31.49-40-62.32-40.57-63.62a3,3,0,0,1,2.14-4.09l52.24-12.28c.9-6.23,3.71-25.86,6.36-47.73-28.89-22.29-43.83-45.28-48.4-53.08-10.88,5.81-51.12,22.52-94.28-19.26-20.39-19.77-28.35-50.54-19.79-76.58,7.21-22,24.83-36.4,48.32-39.59,37.32-5.07,54.59,10.68,67.21,22.18,6,5.49,10.77,9.83,15.78,10a1.37,1.37,0,0,0,1.08-.52c6.28-6.12,6.07-42.34,6-57.8a3.05,3.05,0,0,1,2.4-3c14.67-3.2,40.08-20.32,45.34-99a3.05,3.05,0,0,1,5.23-1.92c.72.74,72.08,73.59,132.8,67.09,8.81-.95,14.51-4.24,17.44-10.06,9.56-19-13.4-58.37-13.63-58.76a3.05,3.05,0,0,1,5-3.42c2.38,3.08,59.21,75.23,128.84,55.85a49.06,49.06,0,0,0,8.88-3.35,3,3,0,0,1,4.36,2.19c23.2,128.94,8.62,223-43.33,279.46h0c-9.21,10-21.35,18.24-36.08,24.49a134.37,134.37,0,0,1-43.3,10c-9.59.66-17.3,1.1-23,1.33l-.45,14,52.75,4.06a3.06,3.06,0,0,1,2.75,3.69,264.66,264.66,0,0,1-23.53,62.18C961.9,899,932.83,920.52,899.82,920.53Zm-168-127.42A246.72,246.72,0,0,0,770,851.84c24.78,28.16,67.27,61.88,129,62.58h.82c67.5,0,95.8-96.73,100.82-116.28l-52.07-4a3,3,0,0,1-2.82-3.16l0-.51.61-19.18a3.06,3.06,0,0,1,2.67-2.93,2.8,2.8,0,0,1,.57-.08c5.74-.17,14.26-.65,25.33-1.4a128.35,128.35,0,0,0,41.33-9.56c13.92-5.9,25.36-13.64,34-23,50.08-54.45,64.38-145.42,42.51-270.41a60.43,60.43,0,0,1-6.3,2.12,95.39,95.39,0,0,1-25.65,3.52c-41.73,0-76.48-27.25-95.09-45.51,5.71,14,10.66,32.53,4.3,45.18-3.87,7.71-11.35,12.22-22.23,13.38a79.69,79.69,0,0,1-8.61.45c-52.68,0-108.09-49-124.48-64.69-6.24,73.26-31.12,92.62-47.22,97.32.12,32.18-1.22,53.38-7.83,59.83a7.39,7.39,0,0,1-5.52,2.25c-7.27-.23-13-5.48-19.71-11.57-12.38-11.29-27.79-25.33-62.28-20.65-21.09,2.87-36.89,15.79-43.35,35.46-7.84,23.86-.51,52.11,18.24,70.29,46.65,45.15,87.73,18.11,89.46,16.94a3.06,3.06,0,0,1,4.21.76,3.45,3.45,0,0,1,.25.41c.6,1.16,14.94,28.51,49.59,54.81a3,3,0,0,1,1.19,2.79c-3.27,27.21-6.85,51.44-6.89,51.68a3.06,3.06,0,0,1-2.31,2.52Zm320.68-56.74h0Z"/><path fill="#302c2c" d="M732.62,628.74a3,3,0,0,1-2.49-1.28c-21.26-29.9-40.59-44.79-55.93-43.12-14.11,1.56-20.74,16.93-20.8,17.09a3.05,3.05,0,0,1-5.63-2.35c.32-.77,8-18.8,25.7-20.79,17.93-2,38.67,13.34,61.63,45.64a3,3,0,0,1-2.48,4.81Z"/><path fill="#302c2c" d="M683.24,625a3,3,0,0,1-2.5-4.8l18.53-26.44a3,3,0,1,1,5,3.49l-18.52,26.45A3,3,0,0,1,683.24,625Z"/><path fill="#302c2c" d="M913.75,660a3.32,3.32,0,0,1-.92-.14,3.06,3.06,0,0,1-2-3.83l6.74-21.32a3,3,0,1,1,5.81,1.84l-6.73,21.32A3,3,0,0,1,913.75,660Z"/><path fill="#302c2c" d="M969.61,664.19c-28.09,0-50.35-14-51.49-14.7a3,3,0,0,1,3.28-5.14c.32.21,32.58,20.39,66.79,11.39a3.05,3.05,0,1,1,1.55,5.9A79.08,79.08,0,0,1,969.61,664.19Z"/><ellipse cx="1009" cy="491.69" fill="#332e2e" rx="22.1" ry="13.37" transform="rotate(-6.58 1008.4 491.424)"/><ellipse cx="858.42" cy="508.93" fill="#332e2e" rx="22.1" ry="13.37" transform="rotate(-6.58 857.918 508.692)"/><path fill="#332e2e" d="M954,614.28a3.06,3.06,0,0,1-2.47-4.83c11-15.26-1.7-29.64-2.25-30.25a3,3,0,0,1,4.52-4.09c5.78,6.35,13.79,22.44,2.68,37.9A3,3,0,0,1,954,614.28Z"/><ellipse cx="847.9" cy="567.27" fill="#fff" rx="38.8" ry="34.3" transform="translate(-37.04 59.72)"/><path fill="#302c2c" d="M803.11,588.84h-.19a3,3,0,0,1-2.86-3.22c0-.46,3.13-46.49,41.32-55.12,38.56-8.73,58.34,44.46,59.16,46.73a3,3,0,0,1-5.73,2.08c-.18-.51-18.75-50.41-52.09-42.86C809,544.05,806.17,585.55,806.15,586A3.05,3.05,0,0,1,803.11,588.84Z"/><circle cx="848.42" cy="576.69" r="27.36" fill="#332e2e" transform="rotate(-64.37 848.42 576.692)"/><path fill="#fff" d="M814.17,602.66l-11,12.78Z"/><path fill="#302c2c" d="M803.21,618.49a3,3,0,0,1-2.31-5l11-12.78a3,3,0,0,1,4.63,4l-11,12.79A3.05,3.05,0,0,1,803.21,618.49Z"/><path fill="#fff" d="M836,611.53l-3.75,15.52Z"/><path fill="#302c2c" d="M832.22,630.1a3,3,0,0,1-.72-.09,3,3,0,0,1-2.25-3.68L833,610.81a3,3,0,0,1,5.93,1.43l-3.74,15.52A3.06,3.06,0,0,1,832.22,630.1Z"/><path fill="#fff" d="M861.38,613.12l2.6,11.49Z"/><path fill="#302c2c" d="M864,627.66a3.05,3.05,0,0,1-3-2.37l-2.6-11.5a3.05,3.05,0,0,1,6-1.35l2.6,11.5a3.05,3.05,0,0,1-2.3,3.65A3.14,3.14,0,0,1,864,627.66Z"/><ellipse cx="1032.58" cy="548.9" fill="#fff" rx="38.8" ry="34.3" transform="rotate(-9.04 1032.88 549.054)"/><path fill="#302c2c" d="M986.55,573.84a2.31,2.31,0,0,1-.37,0,3,3,0,0,1-2.66-3.39c.29-2.4,7.61-58.66,47.15-58.83h.22c39,0,52.3,44,52.43,44.42a3,3,0,0,1-5.85,1.72c-.12-.4-12.2-40-46.58-40h-.19c-34.17.15-41.06,52.94-41.13,53.47A3.05,3.05,0,0,1,986.55,573.84Z"/><circle cx="1032.71" cy="558.34" r="28.87" fill="#332e2e" transform="rotate(-13.24 1032.57 558.295)"/><path fill="#fff" d="M1073.4,575.79l13.55,10Z"/><path fill="#302c2c" d="M1087,588.83a3.06,3.06,0,0,1-1.81-.59l-13.55-10a3.05,3.05,0,0,1,3.62-4.91l13.55,10a3,3,0,0,1-1.81,5.5Z"/><path fill="#fff" d="M1054.16,589.33l7.14,14.28Z"/><path fill="#302c2c" d="M1061.3,606.66a3.06,3.06,0,0,1-2.73-1.68l-7.13-14.29a3,3,0,1,1,5.45-2.72l7.14,14.28a3,3,0,0,1-1.37,4.09A3,3,0,0,1,1061.3,606.66Z"/><path fill="#fff" d="M1029.75,596.59l0,11.79Z"/><path fill="#302c2c" d="M1029.8,611.43a3,3,0,0,1-3-3l-.06-11.78a3.06,3.06,0,0,1,3-3.07h0a3.05,3.05,0,0,1,3,3l0,11.79a3,3,0,0,1-3,3.06Z"/><circle cx="1052.26" cy="541.96" r="11.25" fill="#fff" transform="rotate(-67.32 1052.225 541.963)"/><path fill="#fff" d="M858.5,563.55a9.67,9.67,0,1,0,9-10.3A9.66,9.66,0,0,0,858.5,563.55Z"/><path fill="#333" d="M948.83,790.58c-35.9-7.21-58.25-29.07-58.25-29.07,17.43,7.09,40.91,9.3,59.15,9.81l-.29,0Z"/><path fill="#333" d="M948.83,793.63a3.05,3.05,0,0,1-.6-.06c-36.37-7.3-58.84-29-59.78-29.88a3,3,0,0,1,3.28-5c17.41,7.07,41.19,9.11,58.08,9.58a3.05,3.05,0,0,1,2.64,4.42l-.57,18a3.06,3.06,0,0,1-3,3Zm-43.09-24.28a125.69,125.69,0,0,0,40.16,17.47l.4-12.56C934.25,773.79,919.43,772.51,905.74,769.35Z"/><path fill="#ffb9c5" d="M284.07,1470.36s8.22-86.14,39.29-244.79l305.23,15.11c16-15.13,127.43-72.28,147.17-72.3,0,0,94.43-28.46,117.3-26.59s179.77,134.77,170.29,170.18-97.22-17.82-97.22-17.82l-13.68,46.58-155.71,52.38S691.58,1495,634.63,1467.34Z"/><path fill="#332e2e" d="M656.92,1475.16a53.56,53.56,0,0,1-23-4.77l-349.86,3a2.8,2.8,0,0,1-2.27-1,3,3,0,0,1-.79-2.35c.08-.86,8.58-88.11,39.33-245.08a3,3,0,0,1,3.14-2.46l304,15c18.38-15.58,125.33-71.41,147.78-72.24,7.6-2.29,95.37-28.47,118-26.59,11.6,1,46.82,27.81,73.46,50.53,37.52,32,69.78,65.08,86.27,88.5,11,15.65,15.37,27.09,13.26,35a17.77,17.77,0,0,1-10.93,12.53,29.64,29.64,0,0,1-11,1.84c-25.31,0-64.58-21.53-76.41-28.37l-12.58,42.83a3.07,3.07,0,0,1-2,2l-155.06,52.16C790.59,1403.23,714,1475.16,656.92,1475.16Zm-22.29-10.87a3,3,0,0,1,1.34.31c54.37,26.43,157.61-72.67,158.65-73.68a3,3,0,0,1,1.15-.7L950,1338.35l13.23-45.06a3.06,3.06,0,0,1,4.51-1.75c17.21,10.44,66.11,35.84,85.39,28.09a11.77,11.77,0,0,0,7.31-8.44c1.09-4.1-.16-12.6-12.35-29.9-37.94-53.85-139.32-135.16-155.24-136.46-22.07-1.84-115.25,26.18-116.18,26.46a2.93,2.93,0,0,1-.88.13c-18.59,0-128.67,56-145.08,71.48a3.12,3.12,0,0,1-2.24.83l-302.59-15c-26.93,137.92-36.54,221.24-38.39,238.53l347.15-3Z"/><path fill="#ffb9c5" d="M636.09,1394.09s80.43-18.09,135.43-107.34Z"/><path fill="#332e2e" d="M636.09,1397.14a3,3,0,0,1-.67-6c.79-.18,79.87-18.94,133.5-106a3,3,0,1,1,5.19,3.2c-55,89.31-136.54,108.53-137.35,108.71A3.14,3.14,0,0,1,636.09,1397.14Z"/><path fill="#ffb9c5" d="M913.42,1185.27s99.26,171.61,41.35,190.43-62.36-41.61-62.36-41.61Z"/><path fill="#332e2e" d="M934.13,1382.38a40.41,40.41,0,0,1-23-6.63c-19.41-13-21.63-40.28-21.71-41.44a3,3,0,0,1,2.81-3.26,3.07,3.07,0,0,1,3.27,2.82c0,.25,2.11,25.48,19,36.83,9.92,6.65,23.15,7.35,39.33,2.1,6.5-2.12,10.91-6.39,13.47-13.07,17.14-44.7-55.78-171.65-56.52-172.93a3,3,0,1,1,5.28-3c3.08,5.31,75.11,130.76,56.93,178.17-3.21,8.38-9,14-17.28,16.68A70.34,70.34,0,0,1,934.13,1382.38Z"/><path fill="#ffb9c5" d="M850.73,1183S916,1229.49,918,1285.58s-23.46,65.51-62.3,37.66Z"/><path fill="#332e2e" d="M891.5,1341.48c-10.36,0-22.94-5.27-37.57-15.76a3,3,0,1,1,3.55-5c18.59,13.32,33.54,17.63,43.23,12.43,10.23-5.48,15.15-21.91,14.24-47.52-1.91-54-65.35-99.71-66-100.16a3.05,3.05,0,0,1,3.54-5c2.71,1.93,66.52,48,68.54,104.92,1,28.49-4.86,46.36-17.45,53.11A25.26,25.26,0,0,1,891.5,1341.48Z"/><path fill="#ffb9c5" d="M747.78,1255.2s35.81,81.27,56.51,89.54,59.78,17,47.15-49.81-55.56-104.87-55.56-104.87Z"/><path fill="#332e2e" d="M828.75,1353.44c-7.26,0-15.81-2-25.59-5.87-21.25-8.49-54.45-82.71-58.17-91.14a3,3,0,0,1,5.58-2.46c9.82,22.29,38.82,81.54,54.85,87.94,11.82,4.72,27.85,8.75,37.1,1.14,8.56-7,10.55-23,5.93-47.55-12.27-64.94-54.18-102.79-54.6-103.16a3.05,3.05,0,0,1,4-4.57c1.78,1.59,43.86,39.52,56.54,106.6,5.07,26.85,2.36,44.82-8.05,53.39C841.79,1351.54,835.89,1353.44,828.75,1353.44Z"/><path fill="#7eddff" d="M1932.71,1129.05c-11.63-19-32.81-31.37-57.54-30.63l-756.73,22.63c-29.08.87-54.12,19.75-61.3,48l-71.51,280.17-238.86,7.15c-22.38.66-33,28.35-17,44l182.07,179.23c4.94,4.84,11.66,8.25,18.57,8l727.48-21.75c2.81-.09,5.41-1.69,7.82-2.53l87.89-2.63c29.07-.87,54.08-20.31,61.26-48.5l116.59-457.66A61.47,61.47,0,0,0,1932.71,1129.05Z"/><path fill="#332e2e" d="M929.81,1690.67c-7,0-14.3-3.23-20.11-8.92L727.62,1502.51a28.79,28.79,0,0,1,19.06-49.24l236.57-7.08,70.93-278c7.42-29.12,33.21-49.31,64.17-50.23l756.73-22.63c24.93-.77,47.48,11.24,60.23,32.08a3.38,3.38,0,0,1,.41,1.11,64.82,64.82,0,0,1-1.32,26.72L1817.8,1613c-7.5,29.46-33.27,49.87-64.12,50.79l-87.39,2.62c-.51.2-1,.42-1.56.65a18.28,18.28,0,0,1-6.76,1.9l-727.48,21.75Zm947.46-589.23-2,0-756.73,22.63c-28.21.84-51.7,19.19-58.44,45.65l-71.5,280.18a3.06,3.06,0,0,1-2.86,2.29l-238.87,7.14a22.06,22.06,0,0,0-20.1,14.33,22.34,22.34,0,0,0,5.13,24.47L914,1677.4c4.82,4.72,10.79,7.31,16.34,7.16l727.48-21.75a13.26,13.26,0,0,0,4.51-1.39c.82-.35,1.61-.7,2.39-1a3.25,3.25,0,0,1,.92-.17l87.88-2.63c28.11-.84,51.58-19.41,58.41-46.21l116.59-457.66a58.71,58.71,0,0,0,1.3-23.65C1918.49,1112.05,1899,1101.44,1877.27,1101.44Z"/><path fill="#332e2e" d="M940.61,1627.4a62,62,0,0,0-1.8,21.36,18.71,18.71,0,0,1-4.58-3.41L792.37,1506.58c-12.45-12.2-4.16-33.11,13.27-33.63l175.74-5.26Z"/><path fill="#fff" d="M1434.11,1327.43c.2,6,2.3,11.82,2.42,17.82.49,22.77-25.37,36.43-35,57.08-9.91,21.3-10.63,55.59,14,65.68,32.35,13.23,76.31,18.56,104.22-7,14-12.84,21.3-33.67,15.32-51.71-5.25-15.86-19.76-28.58-20.4-45.27-.61-16,12.1-31,9.15-46.79-3-16.29-21.43-25.06-38-26.35-11.91-.93-24.36.78-34.54,7S1433.7,1315.49,1434.11,1327.43Z"/><path fill="#fff" d="M1558,1224.75a14.16,14.16,0,0,1,6.32.3c3.62,1.26,5.83,5.17,6,9s-1.29,7.54-3.19,10.86c-6.86,12-19.26,20.22-32.55,24s-27.47,3.46-41.13,1.34C1505.59,1245.65,1530.7,1227.94,1558,1224.75Z"/><path fill="#ffb9c5" d="M1724.84,574c-30.9,36.61-68.21,66.89-92.49,87.46l-18.57,255.86c-100.65,2.37-214.17-26.8-253.85-39.29l33.42-241.1c-8.58-20.12-31.63-85.46-9.58-165.46,26.63-96.64,46.66-70.66,70.25-151.22s81.23-33.59,65.73,18.93-56.31,102.09-28,118.55c0,0,16.64-9.79,43-27s36.52-17.12,49-34.16,20.58-45.1,23.79-62.05-11-78.8,21.2-87.5,39.5,30.59,42.83,61.74-3.54,72.35-3.54,72.35,40.11,3,31.45,43.86c0,0,42.07,21.83,24.53,65.65C1724,490.66,1766.55,524.61,1724.84,574Z"/><path fill="#332e2e" d="M1602.08,920.51c-92.28,0-195.23-24.5-243.07-39.56a3,3,0,0,1-2.1-3.33l33.3-240.26c-8.27-19.71-31.55-86.25-9.38-166.69,14.2-51.52,26.6-68.64,38.6-85.19,10.63-14.67,20.67-28.52,31.66-66.08,9.55-32.59,23.56-42.35,33.63-44.79,9.38-2.28,19.2,1.09,27,9.23,12.8,13.44,17.12,35.5,11,56.21-5.21,17.64-13.33,35.16-20.49,50.61-15.24,32.88-24,53.89-10.39,63.5,4.77-2.86,19.89-12,41.29-26,9.32-6.07,16.74-10.07,22.71-13.29,11.09-6,17.78-9.58,25.48-20.11,11.69-16,19.83-42.74,23.25-60.81.77-4.05.44-11.35.06-19.81-1.13-25.08-2.84-63,23.34-70.07,9.28-2.51,17.36-1.47,24,3.1,15.28,10.45,20,36.83,22.62,61.25,2.86,26.62-1.55,59.84-3.08,70.09,5.83,1,18.06,4.37,25.73,14.58,5.91,7.88,7.81,18.08,5.63,30.34,8.31,5.18,39,27.43,24.73,66.29,4.52,4.2,16.48,17,18.36,36.12,1.63,16.54-4.69,33.39-18.79,50.09-28.1,33.29-61.29,61.23-85.52,81.63l-6.36,5.36-18.47,254.58a3,3,0,0,1-3,2.82C1610,920.47,1606,920.51,1602.08,920.51Zm11.7-3.18h0ZM1363.3,875.9c50.1,15.49,155.46,40.05,247.64,38.43l18.37-253.08a3,3,0,0,1,1.07-2.11l7.34-6.19c24.07-20.26,57-48,84.79-80.9h0c13-15.37,18.83-30.67,17.39-45.49-2-20.59-17.65-33.4-17.81-33.52a3.07,3.07,0,0,1-.92-3.52c16.28-40.66-21.49-61-23.11-61.81a3,3,0,0,1-1.57-3.33c2.41-11.41,1-20.68-4.1-27.55-8.43-11.26-24.44-12.63-24.6-12.64a3.05,3.05,0,0,1-2.78-3.54c.07-.41,6.78-41.17,3.52-71.53-2.32-21.69-6.7-47.76-20-56.87-5.2-3.56-11.42-4.3-19-2.25-21.46,5.81-20,39.4-18.84,63.92.4,8.84.74,16.47-.16,21.21-3.54,18.7-12,46.5-24.32,63.28-8.51,11.64-16.07,15.72-27.51,21.88-5.86,3.16-13.16,7.1-22.27,13-26.12,17-43,26.95-43.13,27a3,3,0,0,1-3.07,0c-21.33-12.39-8.46-40.14,6.44-72.27,7.07-15.27,15.09-32.57,20.17-49.77,6.26-21.22-.3-40.54-9.57-50.29-6.3-6.61-13.79-9.28-21.1-7.51-12,2.92-22.41,17.34-29.22,40.59-11.29,38.56-21.63,52.83-32.57,67.93-11.68,16.12-23.76,32.79-37.66,83.24-22,79.64,1.68,145.25,9.44,163.46a3,3,0,0,1,.22,1.61Z"/><path fill="#ffb9c5" d="M1668,381.15c-38.26-5.4-112.68,50.74-71.45,94.15,0,0-27.9,32.61-15.11,55.37s35.21,11.75,35.21,11.75-23.48,38.54,4.46,44.75,55.12-.64,72-36.26Z"/><path fill="#332e2e" d="M1638.41,592.23a82.79,82.79,0,0,1-18-2.08c-7.17-1.6-12-5.27-14.42-10.91-4.26-10,.73-23.73,4.53-31.79-8.53,1.64-22.52,1.18-31.77-15.29-11.88-21.15,7.65-48.92,13.76-56.75-12.56-14.53-14.52-32.06-5.46-49.65,14.32-27.81,54.62-51.4,81.35-47.63a3,3,0,0,1-.85,6c-24.11-3.42-62,19-75.08,44.39-5.8,11.25-9.42,28.13,6.26,44.64a3,3,0,0,1,.11,4.08c-.27.31-26.36,31.27-14.78,51.89,11.19,19.91,30.41,10.91,31.22,10.51a3.05,3.05,0,0,1,3.94,4.33c-3.54,5.81-11.8,23-7.62,32.85,1.61,3.78,4.92,6.18,10.14,7.34,31.32,7,54.41-4.67,68.62-34.6a3.05,3.05,0,0,1,5.51,2.62C1683.37,578.64,1663.69,592.23,1638.41,592.23Z"/><path fill="#ffb9c5" d="M1477.63,488.34s55.95,46.2,29.35,128Z"/><path fill="#332e2e" d="M1507,619.43a3.05,3.05,0,0,1-2.9-4c10.75-33.06,9.26-64.07-4.42-92.18-10.23-21-23.84-32.45-24-32.57a3.05,3.05,0,0,1,3.89-4.7c.59.49,14.62,12.22,25.45,34.34,10,20.38,18.92,53.74,4.86,97A3.06,3.06,0,0,1,1507,619.43Z"/><path fill="#ffb9c5" d="M1596.57,475.3c19.65-20.78,53.49-48.1,89.28-49.18Z"/><path fill="#332e2e" d="M1596.57,478.34a3,3,0,0,1-2.21-5.14c13.87-14.66,50.54-48.9,91.4-50.13a3,3,0,0,1,3.13,3,3,3,0,0,1-3,3.14c-38.59,1.16-73.8,34.11-87.15,48.22A3.06,3.06,0,0,1,1596.57,478.34Z"/><path fill="#ffb9c5" d="M1616.67,542.42c28.55-38.49,67.09-76,107.32-51.76Z"/><path fill="#332e2e" d="M1616.66,545.47a3,3,0,0,1-1.81-.6,3,3,0,0,1-.63-4.26c41.28-55.66,77.7-72.85,111.35-52.56a3,3,0,1,1-3.15,5.22c-30.45-18.36-64.24-1.69-103.31,51A3,3,0,0,1,1616.66,545.47Z"/><path fill="#ffbc8b" d="M1670.33,116.41A119.46,119.46,0,0,0,1536.39,4c-59.07,7.16-104.37,58-104.82,117.46A119.16,119.16,0,0,0,1489.48,225a40.48,40.48,0,0,1,19.62,32.78l.85,16.63,97.25-5-.85-16.63a39.93,39.93,0,0,1,15.79-34.26A119.23,119.23,0,0,0,1670.33,116.41Z"/><path fill="#303030" d="M1510,277.46a3.05,3.05,0,0,1-3-2.89l-.86-16.64a37.48,37.48,0,0,0-18.14-30.32c-37.51-22.5-59.71-62.21-59.38-106.21a122.5,122.5,0,0,1,244.84-5.15h0A122.27,122.27,0,0,1,1624,221a36.77,36.77,0,0,0-14.55,31.65l.85,16.63a3.06,3.06,0,0,1-2.89,3.2l-97.25,5ZM1551.27,6.1a120.46,120.46,0,0,0-14.51.88,116.43,116.43,0,0,0-102.14,114.46c-.31,41.83,20.78,79.56,56.43,100.94a43.58,43.58,0,0,1,21.09,35.24l.7,13.59,91.16-4.67-.69-13.59a42.88,42.88,0,0,1,17-36.86,116.19,116.19,0,0,0,47-99.53h0A116.79,116.79,0,0,0,1626,33.43,115.14,115.14,0,0,0,1551.27,6.1Z"/><path fill="#fff" d="M1577.71,256.3h-.28a5.47,5.47,0,0,1-5.34-5.66l5-126.63a5.34,5.34,0,0,1,5.64-5.22,5.43,5.43,0,0,1,5.21,5.65l-5,126.63A5.43,5.43,0,0,1,1577.71,256.3Z"/><path fill="#fff" d="M1535.61,257.79l.4,0a5.43,5.43,0,0,0,4.8-6l-14-126a5.35,5.35,0,0,0-6-4.81,5.43,5.43,0,0,0-4.8,6l14,126A5.43,5.43,0,0,0,1535.61,257.79Z"/><path fill="#fff" d="M1521,114.18a2.67,2.67,0,0,1-1.68-.51,2.72,2.72,0,0,1-.64-3.79L1527.11,98a2.72,2.72,0,0,1,3.49-.83l16.18,8.59,8.39-9a2.74,2.74,0,0,1,3.69-.28l12.19,9.64L1581.2,97a2.72,2.72,0,1,1,3.63,4L1573,111.71a2.71,2.71,0,0,1-3.5.1l-12-9.5-8.11,8.71a2.73,2.73,0,0,1-3.27.55l-15.92-8.45-7,9.92A2.78,2.78,0,0,1,1521,114.18Z"/><path fill="#7eddff" d="M1577,339.36l-33.28,1.18a30.43,30.43,0,0,1-31.48-29.33L1511,275.67l94.09-3.33,1.26,35.54A30.41,30.41,0,0,1,1577,339.36Z"/><path fill="#332e2e" d="M1542.6,343.61a33.51,33.51,0,0,1-33.43-32.29l-1.26-35.54a3,3,0,0,1,2.94-3.16l94.09-3.33a3.14,3.14,0,0,1,2.18.82,3.07,3.07,0,0,1,1,2.12l1.26,35.54a33.52,33.52,0,0,1-32.27,34.64h0l-33.28,1.18Zm34.37-4.25h0Zm-62.86-60.75,1.15,32.49a27.42,27.42,0,0,0,28.32,26.39l33.29-1.18A27.41,27.41,0,0,0,1603.26,308l-1.15-32.49Z"/><rect width="119.9" height="28.97" x="1498.28" y="254.68" fill="#b6e8ff" rx="9.36" transform="rotate(-2.03 1556.378 268.944)"/><path fill="#332e2e" d="M1507.85,288.49a12.44,12.44,0,0,1-12.4-12l-.36-10.24a12.44,12.44,0,0,1,12-12.85l101.12-3.57a12.43,12.43,0,0,1,12.84,12l.36,10.24a12.42,12.42,0,0,1-12,12.84h0l-101.12,3.58ZM1608.61,256h-.23l-101.11,3.58a6.34,6.34,0,0,0-6.09,6.53l.37,10.24a6.27,6.27,0,0,0,2,4.39,6.41,6.41,0,0,0,4.52,1.7l101.11-3.58a6.33,6.33,0,0,0,6.09-6.53l-.37-10.25A6.31,6.31,0,0,0,1608.61,256Zm.69,25.9h0Z"/><path fill="#ff515a" d="M517.61,1583c-10.31-3.44-53.11-9.86-89.91-9.86h-57c-36.79,0-79.6,6.42-89.91,9.86-18.91,6.3-16.81,23.4-6.3,113.75,8.66,74.52,51.64,113.41,106.51,122.37l36.45,0c54.87-8.95,97.84-47.93,106.51-122.45C534.42,1606.3,536.53,1589.26,517.61,1583Z"/><path fill="#332e2e" d="M417.41,1822.15h0l-36.45,0a3.89,3.89,0,0,1-.49,0c-28.94-4.72-54-17.7-72.33-37.54-20.14-21.73-32.5-51.16-36.72-87.49l-.18-1.56c-5.17-44.4-8.28-71.2-7.71-87.57.58-16.56,5-24.11,16.26-27.87,10.31-3.43,53.73-10,90.87-10h57c37.15,0,80.56,6.58,90.88,10h0c11.27,3.76,15.67,11.3,16.25,27.82.58,16.35-2.53,43.12-7.69,87.48L527,1697c-4.23,36.33-16.58,65.78-36.72,87.53-18.4,19.87-43.41,32.86-72.33,37.58A2.7,2.7,0,0,1,417.41,1822.15Zm-36.2-6.12,36,0c59-9.73,95.88-52.25,103.73-119.75l.19-1.64c10.31-88.62,11.56-103.48-4.43-108.81-10-3.33-52.41-9.7-88.95-9.7h-57c-36.54,0-79,6.37-89,9.7-16,5.33-14.74,20.21-4.42,109l.18,1.56C285.32,1763.81,322.15,1806.3,381.21,1816Z"/><ellipse cx="399.76" cy="1601.76" fill="#302c2c" rx="109.79" ry="17.8"/><path fill="#d0f36f" d="M435.37,1490.49c3.93-2.67,8.87-3.24,13.61-3.64a402.5,402.5,0,0,1,45.41-1.28c11.89.34,23.87,1.19,35.63-.61s23.52-6.59,31.19-15.68c11-13,11.2-33.3,2.37-47.91s-25.32-23.62-42.26-25.76-34.21,2-49.7,9.19a133,133,0,0,0-57.84,52c-14.82-12.06-12.24-36.22-1.79-52.21s26.63-27.4,38.24-42.57c10.65-13.92,17.28-31.51,15.53-49s-12.86-34.33-29.32-40.39c-21.77-8-47,4.66-60,23.84s-16.5,43.2-18,66.36a497.09,497.09,0,0,0,6.9,119.08c-7.26-27.16-28.84-50-55.49-59s-57.56-3.84-80,13.1c-7.11,5.36-13.55,12.07-16.71,20.39-5.8,15.27,1,33.35,13.44,44s29.27,14.69,45.6,15,32.5-2.67,48.71-4.67c7.2-.88,14.67-1.54,21.58.67,15.87,5.07,23.52,23.36,24.9,40s-1.42,33.65,2.7,49.79l44.28-.34c-1.46-34.38-2.53-70.62,13.57-101C429.83,1496.33,432,1492.77,435.37,1490.49Z"/><path fill="#332e2e" d="M370.09,1604.32a3,3,0,0,1-2.95-2.29c-2.67-10.46-2.55-21.27-2.43-31.72.07-6.13.15-12.47-.36-18.58-1.23-14.91-7.87-32.54-22.79-37.31-6.33-2-13.49-1.37-20.28-.54-3.78.46-7.56,1-11.33,1.51-12.33,1.7-25.07,3.46-37.82,3.18-13.59-.3-32.87-3.27-47.51-15.79-14.36-12.26-20.24-31.73-14.31-47.35,2.95-7.78,8.92-15.1,17.72-21.75a91.08,91.08,0,0,1,82.81-13.55,89.85,89.85,0,0,1,47.81,38.5,499.2,499.2,0,0,1-3.23-95.91c1.39-22.21,4.68-47.64,18.47-67.89,12.78-18.76,39.41-33.88,63.61-25,16.76,6.17,29.34,23.43,31.3,42.94,1.71,17.12-4,35.27-16.15,51.13-5.32,6.95-11.59,13.14-17.66,19.14-7.3,7.21-14.85,14.66-20.45,23.23-9.21,14.11-11.82,34.29-1.39,45.76a136.55,136.55,0,0,1,57.19-50c17.68-8.19,35.44-11.45,51.36-9.45,19,2.4,35.64,12.57,44.49,27.21,9.86,16.31,8.74,38-2.65,51.45-9.34,11.06-23.13,15.2-33.06,16.72-10.12,1.56-20.42,1.19-30.37.84-1.94-.07-3.87-.14-5.8-.19a401.22,401.22,0,0,0-45.08,1.27c-4.55.39-8.91.91-12.14,3.12h0c-2.83,1.94-4.78,5.14-6.46,8.32-16.15,30.51-14.52,68.74-13.21,99.47a3,3,0,0,1-.84,2.23,3,3,0,0,1-2.18.94l-44.29.35ZM331.8,1507a37.84,37.84,0,0,1,11.62,1.64c17.78,5.68,25.61,25.73,27,42.61.53,6.39.45,12.88.38,19.15-.11,9.69-.22,18.88,1.69,27.83l38.69-.31c-1.29-30.89-2.31-68.51,14.05-99.42,1.95-3.69,4.48-7.81,8.41-10.5h0c4.46-3,9.67-3.71,15.07-4.17a408.52,408.52,0,0,1,45.76-1.29l5.85.19c9.67.35,19.67.7,29.22-.76,8.9-1.37,21.21-5,29.33-14.64,9.76-11.56,10.64-30.21,2.09-44.36-7.89-13.06-22.85-22.14-40-24.31-14.78-1.86-31.39,1.22-48,8.93a130.3,130.3,0,0,0-56.5,50.83,3.09,3.09,0,0,1-2.09,1.44,3,3,0,0,1-2.45-.64c-16-13-13.8-38.82-2.42-56.24,5.95-9.12,13.74-16.8,21.26-24.24,5.92-5.85,12.05-11.9,17.11-18.51,11-14.41,16.46-31.47,14.92-46.81C461,1296.16,450,1281,435.39,1275.58c-21.29-7.84-45,5.83-56.46,22.68-13,19-16.08,43.46-17.42,64.84a493.59,493.59,0,0,0,6.85,118.35,3.05,3.05,0,0,1-5.95,1.32c-6.93-25.94-27.94-48.26-53.51-56.86a84.9,84.9,0,0,0-77.19,12.64c-7.88,5.94-13.16,12.35-15.7,19-5,13,.33,30.09,12.57,40.55,13.28,11.34,31.08,14,43.68,14.32,12.27.28,24.77-1.46,36.85-3.12,3.81-.53,7.62-1,11.43-1.52A92.78,92.78,0,0,1,331.8,1507Zm103.57-16.49h0Z"/><path fill="#302c2c" d="M424.69,1477.83a3,3,0,0,1-1.92-.68,3,3,0,0,1-.45-4.29C466,1419,537.46,1431.2,538.17,1431.33a3,3,0,1,1-1.08,6c-.68-.12-68.64-11.62-110,39.37A3,3,0,0,1,424.69,1477.83Z"/><path fill="#302c2c" d="M384.77,1395.36l-.32,0a3.05,3.05,0,0,1-2.72-3.34c4-38.77,29.22-85.84,30.3-87.82a3,3,0,1,1,5.36,2.9c-.26.47-25.76,48-29.59,85.54A3.05,3.05,0,0,1,384.77,1395.36Z"/><path fill="#302c2c" d="M347.73,1482.82a3,3,0,0,1-1.78-.57c-53.77-38.62-106-15.7-106.49-15.46a3,3,0,0,1-2.53-5.55c.56-.25,55.85-24.69,112.58,16.06a3,3,0,0,1-1.78,5.52Z"/><path fill="#fff" d="M1256.19,1707.76c0,48.34-39.55,88-87.89,88H660.43a88.31,88.31,0,0,1-87.91-87.94c0-48.36,39.56-87.87,87.91-87.87H1168.3a88.05,88.05,0,0,1,87.89,87.83Z"/><path fill="#303030" d="M1168.3,1798.79H660.43a91,91,0,0,1,0-181.91H1168.3a91,91,0,0,1,0,181.91ZM660.43,1623a84.86,84.86,0,0,0,0,169.71H1168.3a84.86,84.86,0,0,0,0-169.71Z"/><path fill="#b6e8ff" d="M760.61,1707.76c0,48.34-39.55,88-87.91,88H660.43a88.31,88.31,0,0,1-87.91-87.94c0-48.36,39.56-87.87,87.91-87.87H672.7a88.05,88.05,0,0,1,87.91,87.83Z"/><path fill="#332e2e" d="M672.7,1798.79H660.43a91,91,0,0,1,0-181.91H672.7a91,91,0,1,1,0,181.91ZM660.43,1623a84.86,84.86,0,0,0,0,169.71H672.7a84.86,84.86,0,0,0,0-169.71Z"/><path fill="#303030" d="M821.23,1731H809.71v-18.84q0-7.34-5.09-7.33a5.52,5.52,0,0,0-4.54,2.09,8.23,8.23,0,0,0-1.67,5.31V1731H787V1678.2h11.45v22.41h.14a10.43,10.43,0,0,1,3.9-3.81,11.79,11.79,0,0,1,6.08-1.57q6.56,0,9.63,4.16a16.47,16.47,0,0,1,3.07,10.08Z"/><path fill="#303030" d="M850.48,1704.8h-8.17v13.26a5.76,5.76,0,0,0,1,3.7,4.11,4.11,0,0,0,3.35,1.19,8.74,8.74,0,0,0,3.35-.56l.14,8.37a19.22,19.22,0,0,1-6.63,1q-6.64,0-9.5-3.21t-2.86-9.14V1704.8h-5.58v-8.59h5.51v-9.14h11.24v9.14h8.17Z"/><path fill="#303030" d="M874.77,1704.8H866.6v13.26a5.76,5.76,0,0,0,1,3.7,4.13,4.13,0,0,0,3.35,1.19,8.71,8.71,0,0,0,3.35-.56l.14,8.37a19.22,19.22,0,0,1-6.63,1q-6.63,0-9.5-3.21c-1.9-2.14-2.86-5.19-2.86-9.14V1704.8h-5.58v-8.59h5.51v-9.14H866.6v9.14h8.17Z"/><path fill="#303030" d="M918.81,1713.45a19.8,19.8,0,0,1-4.5,13.09,14.85,14.85,0,0,1-12,5.41,14.6,14.6,0,0,1-6.07-1.29,10.83,10.83,0,0,1-4.47-3.53h-.14v20.6H880.14v-51.52H891v4.26h.21a12.51,12.51,0,0,1,4.57-3.77,14.23,14.23,0,0,1,6.53-1.47,14.92,14.92,0,0,1,11.9,5.34A19.14,19.14,0,0,1,918.81,1713.45Zm-11.1,0a9.52,9.52,0,0,0-2.16-6.25,7.36,7.36,0,0,0-6-2.61,7.61,7.61,0,0,0-6,2.72,9.46,9.46,0,0,0,0,12.46,7.64,7.64,0,0,0,6,2.69,7.31,7.31,0,0,0,6-2.66A9.71,9.71,0,0,0,907.71,1713.45Z"/><path fill="#303030" d="M937.94,1697.71a6.16,6.16,0,0,1,2,4.64,6.4,6.4,0,0,1-2,4.72,6.57,6.57,0,0,1-4.75,2,6.87,6.87,0,0,1-4.85-1.91,6.14,6.14,0,0,1-2.06-4.65,6.34,6.34,0,0,1,2-4.74,6.95,6.95,0,0,1,9.63,0Zm0,22.37a6.43,6.43,0,0,1,0,9.36,6.62,6.62,0,0,1-4.75,2,6.87,6.87,0,0,1-4.85-1.92,6.11,6.11,0,0,1-2.06-4.64,6.38,6.38,0,0,1,2-4.75,6.77,6.77,0,0,1,4.88-1.95A6.62,6.62,0,0,1,937.94,1720.08Z"/><path fill="#303030" d="M973.68,1680.51l-21.57,54.09-7.89-2.58,21.57-54.24Z"/><path fill="#303030" d="M1002.64,1680.51l-21.57,54.09-7.88-2.58,21.57-54.24Z"/><path fill="#303030" d="M1063.44,1696.21,1051.36,1731h-11.51l-6.84-21.64h-.14l-6.7,21.64h-11.52l-12-34.76H1015l6,22h.21l6.21-22h11.52l6.42,22h.14l6.07-22Z"/><path fill="#303030" d="M1124.24,1696.21,1112.16,1731h-11.52l-6.84-21.64h-.14L1087,1731h-11.51l-12-34.76h12.35l6,22h.21l6.21-22h11.52l6.42,22h.14l6.07-22Z"/><path fill="#303030" d="M1185,1696.21,1173,1731h-11.52l-6.84-21.64h-.14l-6.7,21.64h-11.52l-12-34.76h12.35l6,22h.2l6.22-22h11.51l6.43,22h.14l6.07-22Z"/><path fill="#303030" d="M1198,1720a6.74,6.74,0,0,1,0,9.7,6.81,6.81,0,0,1-4.92,2,7.14,7.14,0,0,1-5-2,6.36,6.36,0,0,1-2.09-4.82A6.57,6.57,0,0,1,1188,1720a7,7,0,0,1,5-2A6.81,6.81,0,0,1,1198,1720Z"/><path fill="#303030" d="M666,1777.74a70,70,0,1,1,70-70A70,70,0,0,1,666,1777.74Zm0-133.83a63.87,63.87,0,1,0,63.87,63.87A63.94,63.94,0,0,0,666,1643.91Z"/><path fill="#303030" d="M666,1777.74c-24.74,0-44.87-31.38-44.87-70s20.13-70,44.87-70,44.88,31.39,44.88,70S690.75,1777.74,666,1777.74Zm0-133.83c-21.38,0-38.77,28.65-38.77,63.87s17.39,63.86,38.77,63.86,38.78-28.65,38.78-63.86S687.38,1643.91,666,1643.91Z"/><path fill="#303030" d="M666,1777.74c-13,0-19-36.27-19-70s5.94-70,19-70,19,36.27,19,70S679,1777.74,666,1777.74Zm0-133.83c-4.37,0-12.88,22.54-12.88,63.87s8.51,63.86,12.88,63.86,12.89-22.54,12.89-63.86S670.38,1643.91,666,1643.91Z"/><path fill="#303030" d="M732.67,1708H599.35a3,3,0,1,1,0-6.09H732.67a3,3,0,1,1,0,6.09Z"/><path fill="#303030" d="M664.68,1679.58c-30,0-47.1-14.81-48.13-15.74a3,3,0,1,1,4.05-4.55c1.43,1.26,35.45,30.4,93.27,1.32a3.05,3.05,0,0,1,2.74,5.45C696.55,1676.15,679.12,1679.58,664.68,1679.58Z"/><path fill="#303030" d="M712.05,1759.5a3,3,0,0,1-1.63-.47c-47-29.73-91.95-3.42-92.4-3.15a3,3,0,0,1-3.14-5.22c.48-.29,48.57-28.58,98.8,3.22a3,3,0,0,1-1.63,5.62Z"/><rect width="277.02" height="342.21" x="1154.77" y="684.07" fill="#fff" rx="22.68"/><path fill="#332e2e" d="M1411.31,1029.33H1175.25a23.56,23.56,0,0,1-23.53-23.53V704.55A23.56,23.56,0,0,1,1175.25,681h236.06a23.56,23.56,0,0,1,23.53,23.53V1005.8A23.56,23.56,0,0,1,1411.31,1029.33ZM1175.25,687.12a17.45,17.45,0,0,0-17.44,17.43V1005.8a17.45,17.45,0,0,0,17.44,17.43h236.06a17.45,17.45,0,0,0,17.43-17.43V704.55a17.45,17.45,0,0,0-17.43-17.43Z"/><path fill="#332e2e" d="M1223.46,845.85h-11.37q-8.58,0-13.78-5.61t-5.2-14.9V802.2q0-10.26-9.28-10.25V776.7q9.27,0,9.28-9.7V743.31q0-9.28,5.2-14.9t13.78-5.61h11.37v14.55h-6.52q-6.37,0-6.37,8.31V768.8q0,7.22-4.23,11a16,16,0,0,1-8.66,4.37v.27a15.09,15.09,0,0,1,8.73,4.16q4.15,3.75,4.16,11.78V823q0,8.31,6.37,8.31h6.52Z"/><path fill="#332e2e" d="M1261.08,802.41a13.38,13.38,0,0,1,0,19.26,13.59,13.59,0,0,1-9.77,4,14.14,14.14,0,0,1-10-3.88,12.57,12.57,0,0,1-4.16-9.56,13,13,0,0,1,4.16-9.7,13.85,13.85,0,0,1,10-4A13.55,13.55,0,0,1,1261.08,802.41Z"/><path fill="#332e2e" d="M1302.65,802.41a13.38,13.38,0,0,1,0,19.26,13.59,13.59,0,0,1-9.77,4,14.14,14.14,0,0,1-10-3.88,12.56,12.56,0,0,1-4.15-9.56,13,13,0,0,1,4.15-9.7,13.85,13.85,0,0,1,10-4A13.55,13.55,0,0,1,1302.65,802.41Z"/><path fill="#332e2e" d="M1344.22,802.41a13.38,13.38,0,0,1,0,19.26,13.59,13.59,0,0,1-9.77,4,14.16,14.16,0,0,1-10-3.88,12.56,12.56,0,0,1-4.15-9.56,13,13,0,0,1,4.15-9.7,13.86,13.86,0,0,1,10-4A13.55,13.55,0,0,1,1344.22,802.41Z"/><path fill="#332e2e" d="M1401.66,792q-9.29,0-9.29,10.25v23.14q0,9.28-5.19,14.9t-13.79,5.61H1362V831.3h6.52q6.38,0,6.37-8.31V800.4q0-8,4.16-11.78a15.09,15.09,0,0,1,8.73-4.16v-.27a16,16,0,0,1-8.66-4.37q-4.23-3.81-4.23-11V745.66q0-8.31-6.37-8.31H1362V722.8h11.37q8.59,0,13.79,5.61t5.19,14.9V767q0,9.71,9.29,9.7Z"/><path fill="#b6e8ff" d="M1266.66,899.25H1195a7.68,7.68,0,0,1,0-15.36h71.7a7.68,7.68,0,0,1,0,15.36Z"/><path fill="#b6e8ff" d="M1361.18,938.36H1191.7a7.68,7.68,0,0,1,0-15.36h169.48a7.68,7.68,0,0,1,0,15.36Z"/><path fill="#b6e8ff" d="M1262.32,982.9h-71.7a7.68,7.68,0,1,1,0-15.36h71.7a7.68,7.68,0,0,1,0,15.36Z"/><circle cx="1777.33" cy="915.27" r="107.1" fill="#d0f36f" transform="rotate(-45 1777.33 915.276)"/><path fill="#332e2e" d="M1777.33,1025.42a110.15,110.15,0,1,1,110.15-110.15A110.27,110.27,0,0,1,1777.33,1025.42Zm0-214.19a104,104,0,1,0,104.05,104A104.16,104.16,0,0,0,1777.33,811.23Z"/><path fill="#fff" d="M1767.42,967.5a26.4,26.4,0,0,1-19.1-8.15l-45.61-47.59a26.45,26.45,0,0,1,38.19-36.6l27.95,29.17,92-82.16a26.44,26.44,0,1,1,35.22,39.45L1785,960.78A26.33,26.33,0,0,1,1767.42,967.5Z"/><path fill="#333132" d="M1767.42,970.55a29.25,29.25,0,0,1-21.3-9.09l-45.61-47.6a29.49,29.49,0,1,1,42.59-40.81l25.91,27,89.83-80.2a29.49,29.49,0,0,1,39.28,44l-111.06,99.16A29.46,29.46,0,0,1,1767.42,970.55ZM1721.8,870.07a23.39,23.39,0,0,0-16.89,39.58l45.62,47.59a23.39,23.39,0,0,0,32.47,1.27l111.06-99.16a23.4,23.4,0,0,0-31.16-34.91l-92,82.16a3,3,0,0,1-4.23-.16l-28-29.17A23.33,23.33,0,0,0,1721.8,870.07Z"/></svg>