<svg xmlns="http://www.w3.org/2000/svg" data-name="Layer 1" viewBox="0 0 51.49 52.1"><path fill="#1f72e2" d="M38.23,18.05c-2.33-.69-16.5-1.83-20,3.15-2.62,3.7-.13,7.88-.66,12.22C16.5,42,16,48.21,17.42,52H42.93c2.31-6.19,1-22.83,1-28.69C43.86,20.44,40.54,18.74,38.23,18.05Z"/><path fill="#000100" d="M42.93,52.1H17.42a.1.1,0,0,1-.09-.06c-1.5-4-.84-10.79.12-18.63a18.56,18.56,0,0,0-.25-4.78c-.37-2.65-.73-5.14.93-7.49,3.57-5,17.64-3.93,20.13-3.18h0C41,18.78,44,20.62,44,23.31c0,1.16.07,2.75.14,4.59.3,7.63.74,19.15-1.11,24.13A.12.12,0,0,1,42.93,52.1Zm-25.44-.2H42.86c1.82-5,1.38-16.41,1.08-24-.07-1.84-.13-3.44-.14-4.6,0-2.58-2.91-4.36-5.6-5.16h0c-2.38-.71-16.46-1.77-19.9,3.11C16.68,23.54,17,26,17.4,28.6a18.51,18.51,0,0,1,.25,4.83C16.7,41.2,16,48,17.49,51.9Z"/><path fill="#fff" d="M50.69,12.92a1.41,1.41,0,0,0-1-.91c-.09-.89-1-.82-1-.82a1.26,1.26,0,0,0-2.2.1,40.27,40.27,0,0,0-.57-5.22.59.59,0,0,0-1.1,0c-.18.56,0,6.26,0,6.26s-2.23,1.85.61,5.38c.54.68-.83,5.64-.83,5.64L50,24.51s-.43-5.29.41-6.23c.69-.76,0-3.46,0-3.46A1.88,1.88,0,0,0,50.69,12.92Z"/><path d="M50.76,12.89a1.48,1.48,0,0,0-1-.94,1,1,0,0,0-1.07-.84h0a1.47,1.47,0,0,0-1.09-.64,1.5,1.5,0,0,0-1.08.6,38.21,38.21,0,0,0-.57-5,.67.67,0,0,0-.62-.44.68.68,0,0,0-.63.4c-.17.56-.06,5.73,0,6.26-.26.24-2.06,2.13.62,5.46.42.53-.46,4.2-.84,5.57l0,.07,5.71,1.24v-.1c0-.05-.42-5.27.39-6.17.67-.74.09-3.14,0-3.49A2,2,0,0,0,50.76,12.89Zm-.44,1.88,0,0v0s.68,2.67,0,3.38c-.81.9-.5,5.42-.44,6.19l-5.35-1.16c.21-.79,1.32-5,.79-5.62-2.76-3.44-.71-5.2-.62-5.28l0,0v0c0-2-.1-5.8,0-6.24a.51.51,0,0,1,.48-.29.52.52,0,0,1,.48.34,39.67,39.67,0,0,1,.56,5.19v.26l.14-.22a1.56,1.56,0,0,1,1.09-.7,1.32,1.32,0,0,1,1,.6l0,0h.08a.85.85,0,0,1,.92.76v.06h.06a1.3,1.3,0,0,1,1,.86A1.83,1.83,0,0,1,50.32,14.77Z"/><polygon fill="#000100" points="48.29 20.45 48.48 20.48 48.82 17.81 48.63 17.78 48.29 20.45"/><path fill="#000100" d="M48.5,11.22a2.87,2.87,0,0,1,.15,1.69A1.53,1.53,0,0,1,47.12,14a1,1,0,0,1-.93-1c0-.44,0-.73.22-.87.34-.24,1,.07,1,.07l.08-.17s-.74-.37-1.18-.06c-.25.18-.35.53-.29,1a1.19,1.19,0,0,0,1.09,1.18h.11A1.74,1.74,0,0,0,48.83,13a3.15,3.15,0,0,0-.15-1.82Z"/><path fill="#000100" d="M49.55,12a3,3,0,0,1,0,1.44A1.57,1.57,0,0,1,48,14.63a.61.61,0,0,1-.61-.53l-.19,0a.78.78,0,0,0,.79.69h.11a1.78,1.78,0,0,0,1.64-1.29,3,3,0,0,0,0-1.55Z"/><path fill="#000100" d="M45.3,14v.19a4,4,0,0,1,3.33,1.71l.16-.09A4.14,4.14,0,0,0,45.3,14Z"/><path fill="#1f72e2" d="M44.52,19.32c-1.6.92-5.3,12-5.43,18.37-.14,6.82,6,6,8.84,3.38,4.45-4.18,3.52-15.82,3-19.77C50.76,19.62,46,18.5,44.52,19.32Z"/><path fill="#000100" d="M43.24,43.1a4.51,4.51,0,0,1-1.82-.36c-1.15-.51-2.5-1.8-2.43-5.05.13-6.49,3.9-17.55,5.49-18.46h0c1.06-.6,3.65-.19,5.17.58.86.43,1.35.94,1.41,1.48.44,3.57,1.5,15.57-3.06,19.86A7.39,7.39,0,0,1,43.24,43.1Zm2.72-24a2.9,2.9,0,0,0-1.38.26h0c-1.56.88-5.26,11.84-5.39,18.28,0,2.49.75,4.17,2.31,4.87,2.07.92,4.83-.12,6.36-1.56,4.5-4.22,3.44-16.14,3-19.69-.06-.46-.53-.93-1.31-1.33A8.72,8.72,0,0,0,46,19.15Zm-1.43.17Z"/><path fill="#fff" d="M45.87,12.53a1.8,1.8,0,0,0-2.17-.4,2.45,2.45,0,0,0-.49,2.21A6.07,6.07,0,0,0,44.4,16.2l.28-2.34s1.91,1.22,2.46.16S46.45,13.14,45.87,12.53Z"/><path d="M46.65,12.9a2.07,2.07,0,0,1-.72-.42,2.21,2.21,0,0,0-1.52-.64,1.21,1.21,0,0,0-.76.23,2.52,2.52,0,0,0-.51,2.29,6,6,0,0,0,1.21,1.89l.11.12L44.74,14a3.78,3.78,0,0,0,1.62.54h0a.87.87,0,0,0,.85-.48.85.85,0,0,0,.12-.66C47.24,13.14,47,13,46.65,12.9ZM47.08,14a.73.73,0,0,1-.72.39,3.81,3.81,0,0,1-1.64-.58l-.11-.06L44.35,16a5.88,5.88,0,0,1-1.07-1.71,2.39,2.39,0,0,1,.47-2.12,1,1,0,0,1,.66-.2,2,2,0,0,1,1.4.6,2.37,2.37,0,0,0,.78.45c.28.12.53.21.59.4A.68.68,0,0,1,47.08,14Z"/><path fill="#000100" d="M35.19,2.36A2.39,2.39,0,0,0,36.91.85s-.59.26-3.86-.5C28.52-.71,28.21,1.9,28.21,1.9c-2.82-2-5.52,5.64-2.5,10.13,3.12,4.65,7.84,1.81,9.95.23s.09-2.78.12-3.9,1.5-1.46,1.63-3.88A1.89,1.89,0,0,0,35.19,2.36Z"/><path fill="#000100" d="M35.74,2.27A2.44,2.44,0,0,0,37,.88l.06-.19-.18.07a1.26,1.26,0,0,1-.4,0A16.41,16.41,0,0,1,33.07.25a9.31,9.31,0,0,0-2-.25c-2.27,0-2.83,1.3-3,1.74a1.67,1.67,0,0,0-.88-.27c-.76,0-1.48.59-2.05,1.65a9.54,9.54,0,0,0,.41,9A5.17,5.17,0,0,0,30,14.67a9.86,9.86,0,0,0,5.69-2.33c1.51-1.13,1-2.13.53-2.93a2.28,2.28,0,0,1-.38-1.05,1.91,1.91,0,0,1,.55-1.12,4.4,4.4,0,0,0,1.09-2.76A2.11,2.11,0,0,0,37,2.85,2,2,0,0,0,35.74,2.27Zm.53,4.85a2.09,2.09,0,0,0-.59,1.24,2.33,2.33,0,0,0,.41,1.14c.44.81.9,1.66-.48,2.69A9.86,9.86,0,0,1,30,14.48,5,5,0,0,1,25.79,12a9.3,9.3,0,0,1-.4-8.77c.53-1,1.2-1.55,1.88-1.55a1.51,1.51,0,0,1,.88.32l.14.09V1.91S28.54.19,31.1.19A8.38,8.38,0,0,1,33,.44,13.47,13.47,0,0,0,36.76,1a2.34,2.34,0,0,1-1.6,1.28l0,.19h.22A2,2,0,0,1,36.89,3a2,2,0,0,1,.43,1.49A4.27,4.27,0,0,1,36.27,7.12Z"/><path fill="#fff" d="M24.93,8.57A2.4,2.4,0,0,0,25.71,11l.43-3.11S25.1,7.65,24.93,8.57Z"/><path d="M24.85,8.55A2.53,2.53,0,0,0,25.67,11l.1.07.45-3.31h-.07S25,7.56,24.85,8.55Zm.81,2.25A2.34,2.34,0,0,1,25,8.58a.82.82,0,0,1,.9-.68h.14Z"/><path fill="#fff" d="M34.49,9l-.27,3.13A2.41,2.41,0,0,0,35.51,10C35.54,9.07,34.49,9,34.49,9Z"/><path d="M34.49,9h-.07l-.29,3.33.12,0A2.54,2.54,0,0,0,35.59,10C35.62,9,34.5,9,34.49,9ZM34.31,12l.25-2.91a.88.88,0,0,1,.87.89A2.35,2.35,0,0,1,34.31,12Z"/><path fill="#fff" d="M32.44,14.71,27,14.39a10.83,10.83,0,0,1-.2,3.26c2.41,2.56,5.81-.2,5.81-.2A9.63,9.63,0,0,1,32.44,14.71Z"/><path fill="#000100" d="M29.23,18.83a3.31,3.31,0,0,1-2.5-1.11.1.1,0,0,1,0-.09,11,11,0,0,0,.19-3.23.11.11,0,0,1,0-.08s0,0,.07,0l5.44.32a.07.07,0,0,1,.07,0,.09.09,0,0,1,0,.07,9,9,0,0,0,.17,2.7.1.1,0,0,1,0,.1A6.29,6.29,0,0,1,29.23,18.83Zm-2.32-1.21c2.16,2.24,5.17.1,5.59-.21a9.5,9.5,0,0,1-.17-2.61l-5.22-.3A11.13,11.13,0,0,1,26.91,17.62Z"/><path fill="#fff" d="M29.61,3.79a2.57,2.57,0,0,0-3.3,2.12,49.12,49.12,0,0,0-.73,5c-.09,1.29-.38,3.17.41,4.1a5.44,5.44,0,0,0,4.15,1.76c.45-1.21,1.88-.41,2.58-1.05,1.35-1.23,1.39-3.48,1.65-4.81a23,23,0,0,0,.14-5C34.39,5,32.46,3.05,29.61,3.79Z"/><path fill="#000100" d="M30.14,16.9h0a5.52,5.52,0,0,1-4.23-1.79c-.71-.84-.58-2.4-.47-3.65,0-.18,0-.36,0-.52.1-1.35.48-3.86.73-5.06A2.86,2.86,0,0,1,27.44,4a3.06,3.06,0,0,1,2.18-.27,4.54,4.54,0,0,1,3.72.58,2.85,2.85,0,0,1,1.27,1.66,22.8,22.8,0,0,1-.14,5c0,.25-.09.54-.13.85-.2,1.34-.44,3-1.55,4a1.8,1.8,0,0,1-1.19.32c-.58,0-1.12,0-1.36.69A.11.11,0,0,1,30.14,16.9ZM28.84,3.79a2.43,2.43,0,0,0-1.29.34,2.58,2.58,0,0,0-1.14,1.8,47.69,47.69,0,0,0-.73,5c0,.17,0,.34,0,.53-.11,1.21-.24,2.72.42,3.5a5.32,5.32,0,0,0,4,1.72c.3-.71.94-.73,1.51-.75a1.64,1.64,0,0,0,1.06-.27c1.07-1,1.3-2.59,1.49-3.9,0-.31.08-.6.13-.86a23.42,23.42,0,0,0,.14-5,2.54,2.54,0,0,0-1.18-1.52,4.34,4.34,0,0,0-3.59-.55,0,0,0,0,1-.05,0A3.16,3.16,0,0,0,28.84,3.79Z"/><path fill="#000100" d="M30.77,10.76a2.73,2.73,0,0,0-1.95-.42,8.13,8.13,0,0,1-1.71.4,2.65,2.65,0,0,1-1.47-.41c0,.24-.05.45-.06.61-.09,1.29-.38,3.17.41,4.1a5.44,5.44,0,0,0,4.15,1.76c.45-1.21,1.88-.41,2.58-1.05,1.23-1.12,1.38-3.1,1.59-4.44a2.82,2.82,0,0,1-1.38.34A3.36,3.36,0,0,1,30.77,10.76Zm-.41,2.17a4,4,0,0,1-1.29-.17,5.14,5.14,0,0,1-1.18-.57.58.58,0,0,1,.58-1l.5.29.12.06,0,0,.24.09.26.07.13,0,.08,0h.52a.57.57,0,0,1,.57.57A.59.59,0,0,1,30.36,12.93Z"/><path fill="#000100" d="M32.93,11.56a3.16,3.16,0,0,1-2-.8l-.09-.07a2.83,2.83,0,0,0-2-.45,4,4,0,0,0-.64.18,2.87,2.87,0,0,1-1.05.22,2.61,2.61,0,0,1-1.42-.39l-.13-.08v.15c0,.24-.05.45-.07.62s0,.34,0,.52c-.11,1.25-.24,2.81.48,3.64a5.45,5.45,0,0,0,4.22,1.8h.07l0-.06c.24-.65.79-.67,1.37-.7a1.71,1.71,0,0,0,1.18-.32c1.12-1,1.36-2.67,1.55-4,0-.18.05-.34.07-.5l0-.2-.17.1A2.63,2.63,0,0,1,32.93,11.56Zm1.21.23c-.19,1.3-.42,2.92-1.48,3.89a1.62,1.62,0,0,1-1.07.27c-.57,0-1.21.05-1.51.75a5.25,5.25,0,0,1-4-1.72c-.66-.78-.53-2.29-.43-3.5,0-.19,0-.36,0-.53s0-.29,0-.46a2.78,2.78,0,0,0,1.39.34,3,3,0,0,0,1.12-.23,4.11,4.11,0,0,1,.6-.17,2.67,2.67,0,0,1,1.88.41l.1.07a3.3,3.3,0,0,0,2.12.84,2.91,2.91,0,0,0,1.26-.27C34.17,11.58,34.16,11.68,34.14,11.79Z"/><path fill="#000100" d="M30.36,11.68h-.44l-.15,0-.12,0-.25-.07-.14-.05-.13-.05-.12,0-.49-.29a.69.69,0,0,0-.92.24.63.63,0,0,0-.08.47.73.73,0,0,0,.32.45,5,5,0,0,0,1.2.58,3.87,3.87,0,0,0,1.2.18h.12a.69.69,0,0,0,.67-.67.65.65,0,0,0-.18-.47A.71.71,0,0,0,30.36,11.68Zm0,1.15a3.66,3.66,0,0,1-1.26-.16,5.09,5.09,0,0,1-1.16-.56.52.52,0,0,1-.23-.33.41.41,0,0,1,.05-.33.52.52,0,0,1,.43-.24.46.46,0,0,1,.23.06c.19.12.35.22.51.3l.12.06.14,0,.15.06.27.07.13,0,.16,0h.47a.47.47,0,0,1,.34.16.45.45,0,0,1,.13.32A.49.49,0,0,1,30.36,12.83Z"/><path fill="#000100" d="M28.36,11.38l-.14.13a3,3,0,0,0,2,1v-.19A2.84,2.84,0,0,1,28.36,11.38Z"/><path fill="#000100" d="M27.6,6l.06.18a2.89,2.89,0,0,1,1.75-.14l.07-.18A3,3,0,0,0,27.6,6Z"/><path fill="#000100" d="M31.59,5.62l0,.19a2.88,2.88,0,0,1,1.67.53l.1-.16A3,3,0,0,0,31.59,5.62Z"/><path fill="#000100" d="M32.33,8.15a.29.29,0,0,0-.28.28.28.28,0,0,0,.56,0A.29.29,0,0,0,32.33,8.15Z"/><path fill="#000100" d="M32.33,8.06a.38.38,0,0,0,0,.75.38.38,0,0,0,0-.75Zm0,.56a.18.18,0,0,1-.18-.19.18.18,0,0,1,.36,0A.18.18,0,0,1,32.33,8.62Z"/><path fill="#000100" d="M28.21,7.67a.28.28,0,0,0,0,.56.28.28,0,0,0,0-.56Z"/><path fill="#000100" d="M28.21,7.58a.37.37,0,0,0-.38.37.38.38,0,1,0,.75,0A.37.37,0,0,0,28.21,7.58Zm0,.55a.18.18,0,1,1,0-.36.18.18,0,1,1,0,.36Z"/><path fill="#000100" d="M30.47,9.6c0,.05.07.23,0,.32s-.17.07-.26.07l0,.18h.08a.41.41,0,0,0,.36-.15.56.56,0,0,0,0-.5Z"/><path fill="#ff6142" d="M17.29,23.68a12.57,12.57,0,0,0-2.47-.75l-.77,1.81a10.83,10.83,0,0,0-3,0l-.71-1.81a12.58,12.58,0,0,0-2.49.72l.32,1.89,0,0a10.22,10.22,0,0,0-2.53,1.59L4.07,26a12.2,12.2,0,0,0-1.71,2L3.6,29.34a10.62,10.62,0,0,0-1.3,2.77L.48,32A12.47,12.47,0,0,0,.09,34.6l1.74.47a10.65,10.65,0,0,0,.39,3L.67,39a11.27,11.27,0,0,0,.46,1.22,12.78,12.78,0,0,0,.59,1.17l1.7-.55a10.73,10.73,0,0,0,2,2.35l-.83,1.61a12.31,12.31,0,0,0,2.16,1.44l1.15-1.41a10.39,10.39,0,0,0,2.92.89L11,47.59a11.89,11.89,0,0,0,2.6,0l.22-1.87A10.83,10.83,0,0,0,16.65,45l0,0,1.17,1.51a12.91,12.91,0,0,0,2.2-1.37l-.84-1.74a10.76,10.76,0,0,0,2-2.28l1.85.65a12.54,12.54,0,0,0,1.11-2.34l-1.69-1a10.72,10.72,0,0,0,.46-3l1.94-.46a12.66,12.66,0,0,0-.33-2.58l-2,.06a11,11,0,0,0-.5-1.43,12,12,0,0,0-.7-1.33l1.38-1.46a12.71,12.71,0,0,0-1.66-2L19.41,27.3a11.25,11.25,0,0,0-2.5-1.67Z"/><path fill="#000100" d="M12.48,47.77A13.08,13.08,0,0,1,11,47.68a.08.08,0,0,1-.07-.08l-.16-1.78A11.14,11.14,0,0,1,7.91,45L6.8,46.32a.09.09,0,0,1-.11,0,12.76,12.76,0,0,1-2.18-1.46.08.08,0,0,1,0-.1l.8-1.56A10.36,10.36,0,0,1,3.39,41l-1.64.53a.08.08,0,0,1-.11,0c-.21-.38-.41-.78-.59-1.17A11.35,11.35,0,0,1,.59,39a.08.08,0,0,1,0-.1l1.5-.86a10.84,10.84,0,0,1-.38-2.94L.06,34.69A.09.09,0,0,1,0,34.6,12.68,12.68,0,0,1,.4,32a.08.08,0,0,1,.08-.07h0L2.24,32a10.66,10.66,0,0,1,1.25-2.67L2.29,28a.09.09,0,0,1,0-.11A12.46,12.46,0,0,1,4,26a.09.09,0,0,1,.11,0L5.58,27a10.7,10.7,0,0,1,2.49-1.55l-.31-1.82a.09.09,0,0,1,0-.1,12.48,12.48,0,0,1,2.5-.72.09.09,0,0,1,.1.05l.68,1.74a10.9,10.9,0,0,1,2.91,0l.74-1.75a.08.08,0,0,1,.09,0,12.1,12.1,0,0,1,2.49.75.09.09,0,0,1,.05.1L17,25.59a10.31,10.31,0,0,1,2.42,1.61L21,26.1a.09.09,0,0,1,.11,0,12.24,12.24,0,0,1,1.67,2,.09.09,0,0,1,0,.11l-1.34,1.41a10.29,10.29,0,0,1,1.17,2.66l1.94-.05h0a.09.09,0,0,1,.08.06A13.53,13.53,0,0,1,25,34.88a.1.1,0,0,1-.07.09L23,35.42a10.42,10.42,0,0,1-.44,2.88l1.63,1a.1.1,0,0,1,0,.11,13.06,13.06,0,0,1-1.12,2.36.08.08,0,0,1-.1,0l-1.79-.63a10.33,10.33,0,0,1-1.92,2.2L20.14,45a.09.09,0,0,1,0,.11,12.27,12.27,0,0,1-2.22,1.37.09.09,0,0,1-.11,0L16.66,45a10.86,10.86,0,0,1-2.81.81l-.21,1.8a.07.07,0,0,1-.07.07A9.94,9.94,0,0,1,12.48,47.77ZM11,47.52a12.44,12.44,0,0,0,2.44,0l.21-1.8a.08.08,0,0,1,.07-.07,10.55,10.55,0,0,0,2.85-.81l0,0a.11.11,0,0,1,.11,0l1.13,1.45A12.59,12.59,0,0,0,20,45.05l-.82-1.67a.09.09,0,0,1,0-.11,10.44,10.44,0,0,0,2-2.26.09.09,0,0,1,.1,0l1.78.63a12.78,12.78,0,0,0,1.05-2.21l-1.64-1a.08.08,0,0,1,0-.1,10.62,10.62,0,0,0,.45-3,.08.08,0,0,1,.07-.08l1.87-.45a12.43,12.43,0,0,0-.31-2.42l-1.93.05s-.08,0-.09-.06A10.28,10.28,0,0,0,22,31a9.93,9.93,0,0,0-.7-1.33.09.09,0,0,1,0-.1l1.34-1.41a12.61,12.61,0,0,0-1.56-1.86l-1.59,1.1a.09.09,0,0,1-.11,0,10.44,10.44,0,0,0-2.48-1.66.07.07,0,0,1-.05-.09l.37-1.88A11.29,11.29,0,0,0,14.87,23l-.74,1.75a.08.08,0,0,1-.09,0,10.33,10.33,0,0,0-3,0,.09.09,0,0,1-.09-.05L10.28,23a11.57,11.57,0,0,0-2.34.68l.31,1.81a.12.12,0,0,1-.05.1l0,0a10.57,10.57,0,0,0-2.51,1.57.08.08,0,0,1-.1,0L4.08,26.12A11.3,11.3,0,0,0,2.47,28l1.19,1.33a.08.08,0,0,1,0,.1,10.73,10.73,0,0,0-1.29,2.74.09.09,0,0,1-.08.07h0L.55,32.11a12.42,12.42,0,0,0-.38,2.43L1.85,35a.08.08,0,0,1,.06.08,10.58,10.58,0,0,0,.4,3,.1.1,0,0,1,0,.1l-1.5.86c.13.4.28.79.44,1.16s.35.74.55,1.1l1.64-.53a.08.08,0,0,1,.1,0,10.46,10.46,0,0,0,2,2.33.08.08,0,0,1,0,.1l-.8,1.55a11.87,11.87,0,0,0,2,1.36l1.11-1.36a.08.08,0,0,1,.1,0,10.19,10.19,0,0,0,2.89.89.08.08,0,0,1,.07.07Z"/><path fill="#fff" d="M20.43,34a8.14,8.14,0,1,0-6.8,9.28A8.14,8.14,0,0,0,20.43,34Z"/><path fill="#1f72e2" d="M8.79,31.69H7.87L5.45,38H6.63l.56-1.57H9.46L10,38h1.18L8.83,31.8Zm.32,3.78H7.56l.77-2.13Z"/><path fill="#1f72e2" d="M14.32,31.69H11.94V38h1.13V35.68h1.24A2.52,2.52,0,0,0,16,35.17a1.85,1.85,0,0,0,.6-1.47A1.91,1.91,0,0,0,16,32.24,2.43,2.43,0,0,0,14.32,31.69Zm1.14,2a.93.93,0,0,1-.28.74,1.26,1.26,0,0,1-.86.26H13.07v-2h1.29a1.14,1.14,0,0,1,.81.29A1,1,0,0,1,15.46,33.7Z"/><rect width="1.13" height="6.33" x="17.56" y="31.69" fill="#1f72e2"/><path fill="#fff" d="M10.84,47.36v0l-.25.08a5.33,5.33,0,0,1-2.51.24c-2.36-.37-4.17.22-4.91-1.41S2,44.35,2.21,44A13.46,13.46,0,0,1,3,42.49c.39-.55.78-.44,1.27-.7s.92,0,.89.22-.26.41-.41.54l-.13.1.16,0c.26-.07.81-.19,1.17-.24a1.92,1.92,0,0,1,1,.08l.2.15.11.09h0l.1.08.08,0C7.82,43,9.15,43.49,9,44s-1.2,0-1.2,0c-.23.23-.69.11-.69.11.22.91.88.84,2.45,1.23l.15,0,.88.22v.12l.18,1.4v.11h0Z"/><path fill="#000100" d="M10.84,47.38v-.11l-.3.1a5.47,5.47,0,0,1-2.44.23,15.65,15.65,0,0,0-1.93-.16c-1.39-.06-2.4-.1-2.9-1.19-.29-.62-.53-1-.7-1.37-.29-.52-.37-.67-.26-.84s.16-.31.25-.5a7.34,7.34,0,0,1,.56-1,1.19,1.19,0,0,1,.75-.49,2.09,2.09,0,0,0,.49-.18.79.79,0,0,1,.53-.09.34.34,0,0,1,.12.06.16.16,0,0,1,.09.15c0,.17-.32.44-.5.57h0a.1.1,0,0,0,0,.12.1.1,0,0,0,.11,0s.84-.2,1.33-.28a1.9,1.9,0,0,1,.93.08L7,42.6l.15.12.09.07.1.07,0,0h0C8,43.13,9,43.62,9,44a.24.24,0,0,1-.14.19c-.25.1-.75-.15-.92-.25a.09.09,0,0,0-.12,0c-.19.19-.59.09-.59.09a.12.12,0,0,0-.1,0,.17.17,0,0,0,0,.1c.19.78.7.89,1.7,1.11l.68.15.3.08.91.24v-.12l0-.11-.83-.21h0l-1-.22c-.9-.19-1.31-.28-1.5-.81a.83.83,0,0,0,.56-.12c.19.11.71.38,1,.23a.43.43,0,0,0,.25-.33c.14-.67-1.43-1.26-1.69-1.35A3.28,3.28,0,0,0,7,42.37a2,2,0,0,0-1-.09c-.28,0-.66.12-1,.18A.89.89,0,0,0,5.29,42a.38.38,0,0,0-.17-.35.88.88,0,0,0-.86,0,2.45,2.45,0,0,1-.45.16,1.37,1.37,0,0,0-.86.56,5.74,5.74,0,0,0-.58,1c-.09.17-.17.34-.25.47s0,.52.26,1c.18.31.41.74.7,1.35a1.9,1.9,0,0,0,1.38,1.13,8.34,8.34,0,0,0,1.69.18,15.35,15.35,0,0,1,1.91.16,5.41,5.41,0,0,0,2.59-.26,1.17,1.17,0,0,0,.2-.06Z"/><path fill="#0e0e27" d="M4.67,42.54l-.85.39,0,0v0a2.93,2.93,0,0,1-.44,1.12l-.06.07.07.06a1.11,1.11,0,0,1,.4.63.08.08,0,0,0,.07.08h0a.1.1,0,0,0,.09-.1,1.25,1.25,0,0,0-.4-.7,3.25,3.25,0,0,0,.41-1.07c.15-.07.61-.27.82-.38a.09.09,0,0,0,0-.13A.09.09,0,0,0,4.67,42.54Z"/><path fill="#0e0e27" d="M7.39,42.69a3.51,3.51,0,0,0-1,.23,2.11,2.11,0,0,0-.54,1.27,6.32,6.32,0,0,0,0,1.12.08.08,0,0,0,.07.08h0a.09.09,0,0,0,.09-.1,5.83,5.83,0,0,1,0-1.08,2,2,0,0,1,.45-1.13,3.49,3.49,0,0,1,1-.2.08.08,0,0,0,.08-.1A.1.1,0,0,0,7.39,42.69Z"/><path fill="#0e0e27" d="M4.42,42.85a.1.1,0,0,0,0-.13.1.1,0,0,0-.12,0,6.5,6.5,0,0,0-.49,2.62.12.12,0,0,0,.08.09h0a.09.09,0,0,0,.09-.1A6.35,6.35,0,0,1,4.42,42.85Z"/><path fill="#0e0e27" d="M7.21,42.61c-.07,0-1.69-.11-2.14.56a5.55,5.55,0,0,0-.58,2.07.08.08,0,0,0,.07.1h0a.09.09,0,0,0,.11-.08,5.57,5.57,0,0,1,.54-2c.4-.58,2-.47,2-.47a.08.08,0,0,0,.1-.08A.1.1,0,0,0,7.21,42.61Z"/></svg>