<svg xmlns="http://www.w3.org/2000/svg" data-name="Layer 1" viewBox="0 0 50.61 42.32"><path d="M27,2.64S26.78,1.58,22.92.35C20-.57,20,.48,20.85,1.58A1.79,1.79,0,0,0,18.29,3c-.47,2.25.79,2.93.54,4s-1.14,2,.4,3.94S23,15.78,27,12.31,30.33,1.4,27,2.64Z"/><path fill="#fff" d="M27.73,8.45l-.33,2.61a2.2,2.2,0,0,0,1-1.79A.77.77,0,0,0,27.73,8.45Z"/><path fill="#fff" d="M19.29,8a2.2,2.2,0,0,0,.45,2l.47-2.59h-.14A.72.72,0,0,0,19.29,8Z"/><path fill="#fff" d="M25.3,13.05,21,13c0,.49.14,2.14-.66,2.83a5,5,0,0,0,2.8,1.07h0A5,5,0,0,0,26,15.79C25.2,15.1,25.27,13.51,25.3,13.05Z"/><path fill="#000100" d="M23.18,17a5.06,5.06,0,0,1-2.87-1.09s0,0,0-.07a.12.12,0,0,1,0-.08c.75-.66.66-2.27.62-2.75a.08.08,0,0,1,0-.08.11.11,0,0,1,.08,0l4.28.08.07,0a.07.07,0,0,1,0,.07c0,.46-.1,2,.65,2.67a.09.09,0,0,1,0,.08.08.08,0,0,1,0,.07A5.19,5.19,0,0,1,23.18,17Zm-2.65-1.18a4.86,4.86,0,0,0,2.64,1,4.87,4.87,0,0,0,2.66-1,3.78,3.78,0,0,1-.63-2.64l-4.06-.08A4,4,0,0,1,20.53,15.78Z"/><path fill="#fff" d="M25.8,4.65l-.41,0h-.05l0,0A3.63,3.63,0,0,0,23,3.74,2.84,2.84,0,0,0,20.3,5.5a11.77,11.77,0,0,0-.6,2.9,11.47,11.47,0,0,0,1.14,4.93,3.19,3.19,0,0,0,2.72,1.13h0a3.48,3.48,0,0,0,1.77-.4,9,9,0,0,0,2.16-3.5A11.56,11.56,0,0,0,28,7.89l0-.36a2.84,2.84,0,0,0-.59-2.21A2.13,2.13,0,0,0,25.8,4.65Z"/><path fill="#000100" d="M23.56,14.56a3.29,3.29,0,0,1-2.81-1.18,11.56,11.56,0,0,1-1.15-5,11.93,11.93,0,0,1,.61-2.92A2.92,2.92,0,0,1,23,3.64a3.67,3.67,0,0,1,2.38.94h0a2.3,2.3,0,0,1,2.11.68,2.91,2.91,0,0,1,.61,2.28l0,.36a11.71,11.71,0,0,1-.48,2.69,9.2,9.2,0,0,1-2.21,3.55A3.44,3.44,0,0,1,23.56,14.56ZM23,3.84A2.72,2.72,0,0,0,20.4,5.53a11.51,11.51,0,0,0-.6,2.88,11.37,11.37,0,0,0,1.12,4.87,3.1,3.1,0,0,0,2.64,1.08A3.25,3.25,0,0,0,25.27,14a8.86,8.86,0,0,0,2.13-3.44,11.79,11.79,0,0,0,.47-2.65l0-.36a2.72,2.72,0,0,0-.56-2.13,2.09,2.09,0,0,0-1.93-.61h-.05a.11.11,0,0,1-.08,0l0,0A3.51,3.51,0,0,0,23,3.84Z"/><path d="M23.46,9.64c0-.09.05-.22.08-.27l-.17-.13a.55.55,0,0,0-.12.48.47.47,0,0,0,.38.26l0-.22C23.59,9.74,23.48,9.71,23.46,9.64Z"/><path d="M24.65,7.09s1.78.1,2.32.69l.21-.2a4.64,4.64,0,0,0-2.52-.78Z"/><path d="M20.58,6.7l.15.25c.67-.43,2.4-.06,2.42-.06l.06-.29C23.13,6.59,21.35,6.21,20.58,6.7Z"/><path d="M25.63,7.9a.33.33,0,1,0,.33.33A.33.33,0,0,0,25.63,7.9Z"/><circle cx="21.91" cy="7.67" r=".33"/><path d="M25,11a.1.1,0,0,0-.13.09,1.28,1.28,0,0,1-.46.84.56.56,0,0,1-.5,0,.11.11,0,0,0-.15,0,.13.13,0,0,0,0,.15,1.07,1.07,0,0,0,.4.1.61.61,0,0,0,.3-.08c.45-.24.57-1,.58-1A.1.1,0,0,0,25,11Z"/><path d="M31.93,18.26a33.46,33.46,0,0,0-5.35-1.7L26.29,15a11.07,11.07,0,0,1-3,.48A13,13,0,0,1,20,15l-.28,1.63c-1.8.55-3.92.84-5.5,1.64C9,20.94,8.37,42,8.37,42H37.78S37.16,20.94,31.93,18.26Z"/><path fill="#000100" d="M37.78,42.1H8.37a.08.08,0,0,1-.07,0,.11.11,0,0,1,0-.07c0-.87.68-21.15,5.9-23.82A16.49,16.49,0,0,1,17.75,17c.63-.15,1.28-.31,1.88-.49L19.9,15s0-.05.05-.07a.11.11,0,0,1,.08,0,12.78,12.78,0,0,0,3.2.48h.09a10.84,10.84,0,0,0,2.94-.48.12.12,0,0,1,.08,0,.18.18,0,0,1,.05.07l.28,1.51c.52.16,1.07.3,1.59.44A18,18,0,0,1,32,18.18h0c5.23,2.67,5.88,23,5.91,23.82a.11.11,0,0,1,0,.07A.09.09,0,0,1,37.78,42.1ZM8.47,41.9H37.68c-.06-1.6-.86-21-5.8-23.55a18.86,18.86,0,0,0-3.67-1.24c-.54-.14-1.11-.29-1.66-.46a.12.12,0,0,1-.07-.07l-.27-1.46a11.8,11.8,0,0,1-2.89.45h-.09a13,13,0,0,1-3.15-.46l-.26,1.53a.12.12,0,0,1-.07.07c-.63.2-1.3.36-1.95.52a16.21,16.21,0,0,0-3.53,1.12C9.33,20.88,8.53,40.3,8.47,41.9Z"/><path d="M10.35,21.22C1.4,28.21.1,42,.1,42H13.31c.92-.68.35-5.31.35-5.31,1.15.37,1.7-4.09,1.7-4.09l-.88-13.68C12.81,18.11,11.56,20.27,10.35,21.22Z"/><path fill="#000100" d="M13.31,42.1H.1a.09.09,0,0,1-.07,0A.11.11,0,0,1,0,42c0-.14,1.41-13.91,10.29-20.84l.06.07-.06-.07a10.94,10.94,0,0,0,.94-.9c.93-1,2-2.05,3.29-1.41a.08.08,0,0,1,.05.08l.89,13.67c0,.17-.44,3.54-1.36,4.12a.6.6,0,0,1-.33.1c.09.78.48,4.62-.4,5.27ZM.21,41.9H13.28c.69-.59.43-3.94.28-5.2a.09.09,0,0,1,0-.09.12.12,0,0,1,.1,0,.33.33,0,0,0,.3-.05c.84-.53,1.27-3.92,1.27-3.95L14.38,19c-1.15-.52-2.09.46-3,1.4a10,10,0,0,1-1,.91C2,27.86.36,40.59.21,41.9Z"/><path d="M32,18.86,35.15,42h9s-.26-12.42-8-20.38C35,20.51,34,18.86,32,18.86Z"/><path fill="#000100" d="M44.1,42.1h-9a.11.11,0,0,1-.1-.09L31.94,18.88a.11.11,0,0,1,0-.08.09.09,0,0,1,.08,0c1.63,0,2.62,1.13,3.5,2.12.21.24.4.46.6.67C43.85,29.45,44.2,41.87,44.2,42a.11.11,0,0,1,0,.07A.09.09,0,0,1,44.1,42.1Zm-8.86-.2H44c0-1.21-.72-12.75-8-20.21-.21-.21-.4-.44-.61-.68-.87-1-1.76-2-3.24-2.05Z"/><path fill="#fff" d="M13.22,36c-.33-.11-2.47-.95-3.18-1.23l.75,2.41a1.89,1.89,0,0,0,.63.1A2.6,2.6,0,0,0,12.63,37l.08,0,.07.08a2.15,2.15,0,0,0,1.62.86.7.7,0,0,0,.37-.07A4.74,4.74,0,0,0,13.22,36Z"/><path fill="#000100" d="M14.4,38a2.25,2.25,0,0,1-1.7-.9h0a2.81,2.81,0,0,1-1.26.32,2.14,2.14,0,0,1-.67-.11.09.09,0,0,1-.06-.06l-.75-2.41a.11.11,0,0,1,0-.11.12.12,0,0,1,.1,0c.29.12,2.81,1.11,3.19,1.24h0a4.84,4.84,0,0,1,1.61,1.85.1.1,0,0,1,0,.09A.68.68,0,0,1,14.4,38Zm-1.69-1.14a.12.12,0,0,1,.08,0l.06.08a2.08,2.08,0,0,0,1.55.82.73.73,0,0,0,.25,0,5,5,0,0,0-1.46-1.63h0l-3-1.16.67,2.16a2.1,2.1,0,0,0,.56.08,2.57,2.57,0,0,0,1.15-.29l.09,0Z"/><path fill="#ffaa4d" d="M7.91,36.75A5.38,5.38,0,0,0,2.71,42h10.4A5.38,5.38,0,0,0,7.91,36.75Z"/><path fill="#000100" d="M13.11,42.1H2.71a.09.09,0,0,1-.1-.1,5.46,5.46,0,0,1,5.3-5.35A5.47,5.47,0,0,1,13.21,42,.1.1,0,0,1,13.11,42.1Zm-10.3-.2H13a5.27,5.27,0,0,0-5.1-5A5.26,5.26,0,0,0,2.81,41.9Z"/><path fill="#fff" d="M12.34,37.31a9.52,9.52,0,0,0-2.61-2.78.82.82,0,0,0-.43-.13.87.87,0,0,0-.66.42l-.06.1-.1-.06a1.73,1.73,0,0,0-.89-.27,2,2,0,0,0-1.5.93l0,0H6a1.42,1.42,0,0,0-1.51,1.17l0,.1h-.1c-1,0-1.52,1.67-1.52,2.82s.51,1.51,1.44,2a1.08,1.08,0,0,0,.47.13.37.37,0,0,0,.33-.17.72.72,0,0,0,0-.64,2.88,2.88,0,0,0-.9-.86L4.05,40l.1-.1a12.48,12.48,0,0,0,.62-1.86l.2-.72,0,.75a7.62,7.62,0,0,0,.21,1.6,2.44,2.44,0,0,0,.45.64,9.61,9.61,0,0,1,.61.8,1.26,1.26,0,0,0,1,.64A.56.56,0,0,0,7.85,41a4.62,4.62,0,0,0-1-1.61l-.06,0,0-.08a5.35,5.35,0,0,0,.06-1.65v-.13H7a.48.48,0,0,0,.4-.3l.14-.36.08.38c.44,2.14,1.25,4.43,2.26,4.43a.28.28,0,0,0,.24-.14c.45-.67-.44-3.43-.83-4.44l-.13-.35.31.21,1.08.73a17.32,17.32,0,0,1,1.28,2.1,1.48,1.48,0,0,0,1,.89c.16,0,.26-.09.32-.28.19-.67-.38-2-.71-2.74Z"/><path fill="#000100" d="M7.28,41.88a1.35,1.35,0,0,1-1.09-.69,9.28,9.28,0,0,0-.61-.79,3,3,0,0,1-.47-.66A7.93,7.93,0,0,1,4.9,38.1V38l0,.11A13.35,13.35,0,0,1,4.22,40l0,0,0,0a2.81,2.81,0,0,1,.92.9.76.76,0,0,1,0,.73c-.15.26-.48.3-.92.08a2.15,2.15,0,0,1-1.5-2.08c0-1.22.56-2.92,1.62-2.92h0v0A1.53,1.53,0,0,1,6,35.47H6a2.11,2.11,0,0,1,1.59-1,1.92,1.92,0,0,1,.94.28h0a.94.94,0,0,1,.74-.47.9.9,0,0,1,.48.15,9.59,9.59,0,0,1,2.66,2.82l.13.31a5.78,5.78,0,0,1,.72,2.8.43.43,0,0,1-.42.36,1.56,1.56,0,0,1-1.15-1,15.5,15.5,0,0,0-1.25-2.06h0L9.36,37l0,.05s1.39,3.69.82,4.54a.42.42,0,0,1-.32.18c-1.35,0-2.15-3.45-2.36-4.51l0,0,0,0a.56.56,0,0,1-.49.36H7v0a5,5,0,0,1-.07,1.69h0a4.79,4.79,0,0,1,1,1.65.69.69,0,0,1-.06.63A.74.74,0,0,1,7.28,41.88ZM5,37.25H5a.09.09,0,0,1,.09.09l0,.75a7.14,7.14,0,0,0,.2,1.57,2.76,2.76,0,0,0,.43.61,8.28,8.28,0,0,1,.63.81,1.12,1.12,0,0,0,.92.6.52.52,0,0,0,.43-.19.49.49,0,0,0,0-.45,4.58,4.58,0,0,0-1-1.57l-.06,0a.11.11,0,0,1,0-.11l0-.07a5.31,5.31,0,0,0,0-1.61v-.14a.1.1,0,0,1,.1-.1H7a.37.37,0,0,0,.31-.24l.14-.36a.1.1,0,0,1,.1-.06.09.09,0,0,1,.09.08l.08.38c.41,2,1.22,4.35,2.16,4.35a.19.19,0,0,0,.16-.09c.38-.57-.31-3-.84-4.35l-.13-.35a.09.09,0,0,1,0-.11.1.1,0,0,1,.12,0l1.38.94,0,0,0,0a15.71,15.71,0,0,1,1.27,2.09,1.37,1.37,0,0,0,1,.83c.08,0,.17,0,.22-.21a5.54,5.54,0,0,0-.7-2.66l-.14-.32h0a9.34,9.34,0,0,0-2.57-2.73.73.73,0,0,0-.38-.12.77.77,0,0,0-.57.36L8.67,35a.1.1,0,0,1-.06.05H8.53L8.43,35a1.67,1.67,0,0,0-.84-.26,1.84,1.84,0,0,0-1.41.88l0,0a.1.1,0,0,1-.08.05H6a1.33,1.33,0,0,0-1.42,1.08v.11a.11.11,0,0,1-.1.08h-.1c-.88,0-1.42,1.58-1.42,2.72s.47,1.43,1.39,1.9c.33.16.56.17.66,0A.6.6,0,0,0,5,41a2.88,2.88,0,0,0-.86-.83L4,40.11s0,0,0-.07A.11.11,0,0,1,4,40l.1-.1A14.63,14.63,0,0,0,4.68,38l.2-.72A.1.1,0,0,1,5,37.25Z"/><path fill="#1f72e2" d="M33.72,27.75l.53-.64a.23.23,0,0,0,0-.27l-.52-.71a.23.23,0,0,1,.1-.35l.83-.29a.22.22,0,0,0,.15-.23l-.08-.82a.21.21,0,0,0-.18-.2l-.87-.14a.22.22,0,0,1-.17-.31l.38-.8a.22.22,0,0,0-.06-.26l-.64-.53a.21.21,0,0,0-.27,0l-.71.52a.22.22,0,0,1-.34-.11l-.29-.83a.24.24,0,0,0-.24-.15l-.82.08a.23.23,0,0,0-.2.19l-.13.87a.23.23,0,0,1-.32.17l-.79-.39a.23.23,0,0,0-.27.06l-.53.64a.21.21,0,0,0,0,.27l.52.71a.22.22,0,0,1-.11.35l-.82.29a.22.22,0,0,0-.15.23l.07.82a.21.21,0,0,0,.19.2l.87.14a.23.23,0,0,1,.17.32l-.38.79a.22.22,0,0,0,.06.27l.63.52a.23.23,0,0,0,.28,0l.71-.52a.22.22,0,0,1,.34.11l.29.83a.22.22,0,0,0,.23.15l.83-.08a.23.23,0,0,0,.2-.19l.13-.87a.22.22,0,0,1,.32-.16l.79.38A.23.23,0,0,0,33.72,27.75Z"/><path fill="#000100" d="M31.16,28.82a.31.31,0,0,1-.29-.21l-.29-.83a.2.2,0,0,0-.09-.09.16.16,0,0,0-.12,0l-.71.52a.3.3,0,0,1-.38,0l-.64-.53a.31.31,0,0,1-.08-.37l.38-.79a.15.15,0,0,0,0-.13.18.18,0,0,0-.1-.07L28,26.2a.31.31,0,0,1-.26-.28l-.08-.82a.3.3,0,0,1,.21-.32l.83-.3a.11.11,0,0,0,.08-.08.13.13,0,0,0,0-.12l-.52-.71a.33.33,0,0,1,0-.39l.53-.63a.3.3,0,0,1,.37-.08l.8.38a.13.13,0,0,0,.12,0,.13.13,0,0,0,.07-.09l.13-.87a.33.33,0,0,1,.28-.27l.83-.07a.3.3,0,0,1,.32.2l.29.83a.14.14,0,0,0,.09.09.17.17,0,0,0,.12,0l.71-.52a.3.3,0,0,1,.38,0l.64.53A.31.31,0,0,1,34,23l-.38.79a.15.15,0,0,0,0,.13.14.14,0,0,0,.1.07l.87.13a.31.31,0,0,1,.26.28l.08.82a.32.32,0,0,1-.21.33l-.83.29a.11.11,0,0,0-.08.09.11.11,0,0,0,0,.12l.52.7a.32.32,0,0,1,0,.39l-.52.63a.32.32,0,0,1-.38.09l-.79-.39a.17.17,0,0,0-.12,0,.11.11,0,0,0-.07.1l-.14.87a.31.31,0,0,1-.27.26l-.83.07Zm-.71-1.31.09,0a.29.29,0,0,1,.2.19l.29.83a.14.14,0,0,0,.14.09l.83-.08a.13.13,0,0,0,.12-.11l.13-.87a.33.33,0,0,1,.17-.23.31.31,0,0,1,.28,0l.79.38a.14.14,0,0,0,.16,0h0l.53-.63a.15.15,0,0,0,0-.17l-.53-.71a.34.34,0,0,1,0-.28.31.31,0,0,1,.19-.2l.83-.29a.13.13,0,0,0,.09-.14l-.07-.82a.15.15,0,0,0-.12-.13l-.87-.13a.3.3,0,0,1-.23-.16.34.34,0,0,1,0-.28l.38-.79a.14.14,0,0,0,0-.17l-.63-.53a.14.14,0,0,0-.17,0l-.71.52a.3.3,0,0,1-.27,0,.32.32,0,0,1-.21-.2l-.29-.83a.14.14,0,0,0-.14-.09l-.82.08a.13.13,0,0,0-.12.11l-.14.87a.3.3,0,0,1-.16.23.28.28,0,0,1-.28,0l-.79-.38a.14.14,0,0,0-.16,0l-.53.64a.12.12,0,0,0,0,.16l.52.71a.31.31,0,0,1-.15.48l-.82.29a.15.15,0,0,0-.1.14l.08.83A.14.14,0,0,0,28,26l.87.13a.3.3,0,0,1,.23.16.31.31,0,0,1,0,.28l-.38.8a.12.12,0,0,0,0,.16l.64.53a.14.14,0,0,0,.17,0l.71-.52A.28.28,0,0,1,30.45,27.51Z"/><path fill="#fff" d="M32,26.16a1.22,1.22,0,1,1,.26-1.71A1.23,1.23,0,0,1,32,26.16Z"/><path fill="#fa514f" d="M43.09,34.18l.94-.93a.34.34,0,0,0,.06-.43l-.71-1.22a.36.36,0,0,1,.22-.53L45,30.74a.37.37,0,0,0,.28-.34V29.07a.36.36,0,0,0-.27-.35l-1.37-.35a.35.35,0,0,1-.21-.53l.73-1.2a.35.35,0,0,0,0-.44l-.93-.95a.35.35,0,0,0-.43-.05l-1.22.71a.36.36,0,0,1-.53-.22l-.33-1.37a.36.36,0,0,0-.34-.28H39a.36.36,0,0,0-.35.27l-.35,1.36a.35.35,0,0,1-.53.22l-1.21-.73a.33.33,0,0,0-.43.05l-1,.93a.35.35,0,0,0-.06.43l.72,1.22a.36.36,0,0,1-.22.53l-1.37.33A.35.35,0,0,0,34,29v1.33a.37.37,0,0,0,.27.35l1.36.35a.36.36,0,0,1,.22.53l-.74,1.2a.36.36,0,0,0,.06.44l.92,1a.36.36,0,0,0,.44,0l1.22-.71a.36.36,0,0,1,.53.22l.33,1.37a.35.35,0,0,0,.34.28h1.33a.35.35,0,0,0,.34-.27l.36-1.37a.35.35,0,0,1,.53-.21l1.2.73A.35.35,0,0,0,43.09,34.18Z"/><path fill="#000100" d="M40.22,35.43H38.89a.45.45,0,0,1-.43-.34l-.33-1.37a.26.26,0,0,0-.16-.18.25.25,0,0,0-.24,0l-1.21.72a.47.47,0,0,1-.55-.07L35,33.24A.44.44,0,0,1,35,32.7l.73-1.2a.25.25,0,0,0,0-.25.24.24,0,0,0-.18-.16l-1.36-.35a.45.45,0,0,1-.34-.43V29a.47.47,0,0,1,.35-.43l1.36-.33a.27.27,0,0,0,.17-.4L35,26.61a.45.45,0,0,1,.07-.55l.94-.93a.45.45,0,0,1,.55-.06l1.2.74a.29.29,0,0,0,.24,0,.28.28,0,0,0,.16-.19l.36-1.36a.46.46,0,0,1,.43-.34h1.33a.47.47,0,0,1,.43.35l.33,1.37a.26.26,0,0,0,.16.18.29.29,0,0,0,.24,0l1.21-.72a.47.47,0,0,1,.55.07l.92.95a.44.44,0,0,1,.07.54l-.74,1.2a.31.31,0,0,0,0,.25.28.28,0,0,0,.19.16l1.36.35a.43.43,0,0,1,.33.43V30.4a.45.45,0,0,1-.34.43l-1.37.33a.26.26,0,0,0-.18.16.26.26,0,0,0,0,.24l.72,1.21a.47.47,0,0,1-.07.55l-1,.93h0a.44.44,0,0,1-.54.06l-1.21-.74a.29.29,0,0,0-.24,0,.28.28,0,0,0-.16.19l-.35,1.36A.44.44,0,0,1,40.22,35.43Zm-2.35-2.1a.35.35,0,0,1,.17,0,.42.42,0,0,1,.26.3L38.63,35a.28.28,0,0,0,.26.21h1.33a.28.28,0,0,0,.26-.2l.35-1.37a.43.43,0,0,1,.27-.3.47.47,0,0,1,.4,0l1.2.74a.27.27,0,0,0,.33,0l.94-.93a.27.27,0,0,0,.05-.33l-.72-1.21a.44.44,0,0,1,0-.4.42.42,0,0,1,.3-.26L45,30.66a.28.28,0,0,0,.21-.26V29.07a.27.27,0,0,0-.2-.26l-1.37-.35a.45.45,0,0,1-.3-.27.47.47,0,0,1,0-.4l.74-1.2a.27.27,0,0,0,0-.33l-.93-1a.29.29,0,0,0-.33,0L41.56,26a.44.44,0,0,1-.4,0,.4.4,0,0,1-.26-.3l-.33-1.37a.28.28,0,0,0-.26-.21H39a.27.27,0,0,0-.26.2l-.36,1.37a.46.46,0,0,1-.26.3.47.47,0,0,1-.4,0l-1.2-.74a.27.27,0,0,0-.33,0l-1,.93a.29.29,0,0,0,0,.33l.72,1.21a.46.46,0,0,1-.28.66l-1.37.33A.28.28,0,0,0,34,29v1.33a.27.27,0,0,0,.2.26l1.37.35a.5.5,0,0,1,.3.27.44.44,0,0,1,0,.4l-.73,1.2a.26.26,0,0,0,0,.33l.93.94a.27.27,0,0,0,.33,0l1.21-.72A.46.46,0,0,1,37.87,33.33Zm5.22.85Z"/><path fill="#fff" d="M40.59,31.38a2,2,0,1,1,.69-2.69A2,2,0,0,1,40.59,31.38Z"/><rect width="22.8" height="12.28" x="27.72" y="29.96" fill="#ff6142"/><path fill="#000100" d="M50.52,42.32H27.72a.09.09,0,0,1-.09-.09V30a.09.09,0,0,1,.09-.09h22.8a.09.09,0,0,1,.09.09V42.23A.09.09,0,0,1,50.52,42.32ZM27.8,42.15H50.43V30H27.8Z"/><path fill="#fff" d="M32.6,32.59l-2.68,7h1l.66-1.83h2.94l.67,1.83h1l-2.69-7ZM31.82,37,33,33.73,34.2,37Z"/><path fill="#fff" d="M39.63,32.59H37v7H38V36.86h1.65a2.72,2.72,0,0,0,1.83-.56,2,2,0,0,0,.64-1.57,2,2,0,0,0-.66-1.56A2.58,2.58,0,0,0,39.63,32.59Zm1.14,3.16a1.71,1.71,0,0,1-1.14.35H38V33.34h1.71a1.59,1.59,0,0,1,1.09.39,1.36,1.36,0,0,1,.39,1A1.28,1.28,0,0,1,40.77,35.75Z"/><path fill="#fff" d="M47.66,33.17a2.62,2.62,0,0,0-1.8-.58H43.27v7h.92V36.86h1.66a2.68,2.68,0,0,0,1.82-.56,1.94,1.94,0,0,0,.64-1.57A2,2,0,0,0,47.66,33.17ZM47,35.75a1.66,1.66,0,0,1-1.13.35H44.19V33.34h1.72a1.54,1.54,0,0,1,1.08.39,1.33,1.33,0,0,1,.4,1A1.25,1.25,0,0,1,47,35.75Z"/></svg>