<svg xmlns="http://www.w3.org/2000/svg" viewBox="0 0 800 600"><g opacity=".7"><circle cx="546.73" cy="398.83" r="153.34" fill="#f0f0fc" transform="rotate(-45 546.73 398.827)"/><circle cx="333.31" cy="298.99" r="261.14" fill="#f0f0fc"/></g><path fill="#2c2f49" d="M490.52,261.54c-1.61,35.14-36.15,62.07-62,63.69-34.19,2.15-58.62-28.68-62-63.69-3-30.33,7.83-29.88,15.85-42.52,9.72-15.32,27.84-23.79,46.18-23.79C462.75,195.23,492.68,214.26,490.52,261.54Z"/><rect width="48.07" height="60.18" x="404.46" y="321.95" fill="#f2b5aa"/><path fill="#f2b5aa" d="M482.5,286.85c8.57-13,19.48-13.59,24,1.8S496.06,316.71,483.81,312,482.5,286.85,482.5,286.85Z"/><path fill="#f2b5aa" d="M374.1,286.85c-8.58-13-19.49-13.59-24.05,1.8s10.48,28.06,22.73,23.39S374.1,286.85,374.1,286.85Z"/><path fill="#f2b5aa" d="M379.08,223.91h98.84a2.54,2.54,0,0,1,2.54,2.54V345.17a3.76,3.76,0,0,1-3.76,3.76H380.3a3.76,3.76,0,0,1-3.76-3.76V226.45a2.54,2.54,0,0,1,2.54-2.54Z"/><path fill="#2c2f49" d="M383,238.74s33-17.4,54.95-4.79,24.4,38.66,46.06,31.92c0,0,16.45-7.24-1.64-32.47s-30.48-30.16-54-24.68S389.41,218.47,383,238.74Z"/><path fill="#2c2f49" d="M381.71,238.49s10.9-14.45,26.15-18.27S440,235.16,440,235.16,400.9,229.59,381.71,238.49Z"/><path fill="#2c2f49" d="M376.61,256.66s3.68,26.82,0,43.18C376.61,299.84,371.24,258.26,376.61,256.66Z"/><path fill="#2c2f49" d="M480.08,256.66s-3.68,26.82,0,43.18C480.08,299.84,485.45,258.26,480.08,256.66Z"/><path fill="#8b88ff" d="M595.27,531.63,243.53,532s6.56-13.73,16-31.92l2.15-4.12c12.9-24.6,30.25-55.68,43.79-72.54,15.6-19.41,52.46-33.24,77.49-40.8,14.59-4.4,25.16-6.67,25.16-6.67h40.4s9.49,2,22.9,6c25,7.39,62.4,22.56,79.74,41.47a92,92,0,0,1,10.75,14.75C583.27,473.63,595.27,531.63,595.27,531.63Z"/><path fill="#f2b5aa" d="M471.43,381.93c-43.55,47.91-88.46.68-88.46.68,14.59-4.41,25.16-6.68,25.16-6.68h40.41S458,378,471.43,381.93Z"/><line x1="332.36" x2="332.36" y1="477.42" y2="532.06" fill="none" stroke="#f58300" stroke-miterlimit="10" stroke-width="4.5"/><line x1="332.36" x2="317.69" y1="512.25" y2="493.54" fill="none" stroke="#f58300" stroke-miterlimit="10" stroke-width="4.5"/><rect width="3.23" height="54.63" x="522.02" y="477.42" fill="#6b5eff"/><rect width="21.11" height="3.23" x="519.6" y="502.33" fill="#6b5eff" transform="rotate(-51.89 530.171 503.953)"/><path fill="#2c2f49" d="M381.72,216.14c12.12-50.95,133.57-45.34,111,53.86-6.77,29.71-56.27-67.55-99-43.69a8.38,8.38,0,0,1-9.84-1.17h0C381.41,222.84,380.94,219.41,381.72,216.14Z"/><path fill="#363a72" d="M448.43,531.66l-.12,0a8.77,8.77,0,0,1-.9,0H211.83a9.9,9.9,0,0,1-9.9-9.91l0-.1L165.21,418.05a12.17,12.17,0,0,1,11.47-16.23h153a12.16,12.16,0,0,1,11.47,8.11l39.54,111.69.06.19h66.93C453.78,521.81,454.46,531,448.43,531.66Z"/><ellipse cx="255.96" cy="470.16" fill="#fff" rx="17.74" ry="21.53" transform="rotate(-18.98 255.935 470.131)"/><path fill="#21254f" d="M447.64,521.81H380.71l0-.19L341.11,409.93a12.16,12.16,0,0,0-11.47-8.11h-5.12s11.43.75,14.29,11,41.9,118.71,41.9,118.71l2.89.21h63.81a8.77,8.77,0,0,0,.9,0C454.47,531.12,453.82,521.81,447.64,521.81Z"/><path fill="#ed9906" d="M687.05,545.92v2.49a13.76,13.76,0,0,1-13.76,13.75H118.37a13.77,13.77,0,0,1-13.32-10.28,0,0,0,0,0,0,0,14,14,0,0,1-.43-3.44v-2.49a13.75,13.75,0,0,1,13.76-13.75H673.29A13.76,13.76,0,0,1,687.05,545.92Z"/><rect width="134.57" height="67.28" x="163.86" y="258.92" fill="#21254f" rx="2.44"/><rect width="134.57" height="67.28" x="513.49" y="314.32" fill="#2e3062" rx="2.44"/><rect width="149.73" height="74.87" x="365.98" y="71.19" fill="#363a72" rx="2.71"/><path fill="#21254f" d="M647.08,499.16h-5.9a1,1,0,1,1,0-2h5.9a1,1,0,1,1,0,2Zm-11.81,0h-5.9a1,1,0,1,1,0-2h5.9a1,1,0,1,1,0,2Zm-11.81,0h-2.39a7.93,7.93,0,0,1-3.84-1,1,1,0,0,1-.38-1.34,1,1,0,0,1,1.33-.38,6,6,0,0,0,2.89.75h2.39a1,1,0,1,1,0,2Zm-9.18-5.46a1,1,0,0,1-.95-.77,7.51,7.51,0,0,1-.19-1.7v-4.4a1,1,0,1,1,2,0v4.4a6.12,6.12,0,0,0,.14,1.28,1,1,0,0,1-.75,1.17A.86.86,0,0,1,614.28,493.7Zm-.15-11.79a1,1,0,0,1-1-1V475a1,1,0,0,1,2,0v5.9A1,1,0,0,1,614.13,481.91Zm0-11.81a1,1,0,0,1-1-1v-5.91a1,1,0,0,1,2,0v5.91A1,1,0,0,1,614.13,470.1Zm0-11.81a1,1,0,0,1-1-1V451.4a1,1,0,0,1,2,0v5.91A1,1,0,0,1,614.13,458.29Zm0-11.81a1,1,0,0,1-1-1v-.72a7.9,7.9,0,0,1,2.11-5.38,1,1,0,1,1,1.44,1.33,6,6,0,0,0-1.58,4v.72A1,1,0,0,1,614.13,446.48Zm36.64-7.66h-5.91a1,1,0,0,1,0-2h5.91a1,1,0,0,1,0,2Zm-11.81,0h-5.9a1,1,0,1,1,0-2H639a1,1,0,0,1,0,2Zm-11.81,0h-5.9a1,1,0,1,1,0-2h5.9a1,1,0,1,1,0,2Z"/><rect width="31.61" height="3.94" x="636.89" y="473.61" fill="#21254f"/><rect width="51.06" height="3.94" x="676.77" y="473.61" fill="#21254f"/><rect width="31.61" height="3.94" x="696.23" y="507.1" fill="#21254f"/><rect width="51.06" height="3.94" x="636.89" y="507.1" fill="#21254f"/><rect width="55.59" height="3.94" x="636.89" y="485.02" fill="#21254f"/><rect width="27.08" height="3.94" x="700.75" y="485.02" fill="#21254f"/><rect width="45.75" height="3.94" x="636.89" y="496.21" fill="#21254f"/><rect width="31.04" height="3.94" x="696.79" y="496.21" fill="#21254f"/><rect width="16.55" height="30.81" x="636.89" y="426.06" fill="#ffaa01"/><rect width="16.55" height="42.5" x="662.85" y="414.36" fill="#21254f"/><rect width="16.55" height="66.75" x="687.95" y="390.12" fill="#ed9906"/><rect width="5.94" height="3.94" x="687.01" y="496.21" fill="#001465"/><rect width="123.86" height="138.19" x="188.5" y="82.55" fill="#ffdfa6"/><rect width="86.37" height="2.88" x="198.5" y="107.11" fill="#fff"/><path fill="#fff" d="M241.59,131c-14.83,0-29.63,0-43.09-.05V128c26.91.07,59.19.07,86.36,0v2.88C271.29,131,256.43,131,241.59,131Z"/><rect width="86.37" height="2.88" x="198.5" y="117.57" fill="#fff"/><rect width="62.96" height="2.88" x="198.5" y="138.54" fill="#fff"/><rect width="86.37" height="2.88" x="198.5" y="208.96" fill="#fff"/><path fill="#fff" d="M284.87,190.92c-27.17-.07-59.45-.07-86.36,0V188c26.92-.07,59.21-.07,86.37,0Z"/><rect width="86.37" height="2.88" x="198.5" y="198.5" fill="#fff"/><rect width="62.96" height="2.88" x="198.5" y="177.53" fill="#fff"/><path fill="#ffdfa6" d="M314.28,222.66H186.58V80.59h127.7ZM188.5,220.74H312.36V82.51H188.5Z"/><rect width="125.78" height="16.55" x="187.54" y="81.55" fill="#ffaa01"/><path fill="#fff" d="M277.4,170.17a1.47,1.47,0,0,1-.95-.36l-9.68-8.55a1.45,1.45,0,0,1-.48-1.08,1.43,1.43,0,0,1,.48-1.08l9.68-8.55a1.43,1.43,0,0,1,2,.12,1.45,1.45,0,0,1-.12,2l-8.46,7.47,8.46,7.47a1.44,1.44,0,0,1,.12,2A1.4,1.4,0,0,1,277.4,170.17Z"/><path fill="#fff" d="M292.34,170.17a1.44,1.44,0,0,1-1-2.52l8.46-7.47-8.46-7.47a1.46,1.46,0,0,1-.13-2,1.44,1.44,0,0,1,2-.12L303,159.1a1.43,1.43,0,0,1,.48,1.08,1.45,1.45,0,0,1-.48,1.08l-9.68,8.55A1.47,1.47,0,0,1,292.34,170.17Z"/><path fill="#fff" d="M199.46,89.82l3.35-3.35a.81.81,0,1,0-1.15-1.15l-3.35,3.36L195,85.32a.81.81,0,1,0-1.15,1.15l3.36,3.35-3.36,3.36a.81.81,0,0,0,0,1.15.81.81,0,0,0,1.15,0L198.31,91l3.35,3.36a.81.81,0,0,0,1.15,0,.81.81,0,0,0,0-1.15Z"/><path fill="#fff" d="M213.85,94.57a4.75,4.75,0,1,1,4.74-4.75A4.75,4.75,0,0,1,213.85,94.57Zm0-8a3.23,3.23,0,1,0,3.22,3.22A3.23,3.23,0,0,0,213.85,86.6Z"/><path fill="#fff" d="M232.19,94.57h-7.72a.82.82,0,1,1,0-1.63h7.72a.82.82,0,1,1,0,1.63Z"/><path fill="#ed9906" d="M628,198.85l-8.64,2.74a4.47,4.47,0,0,0-.81.34,43.57,43.57,0,0,0-9.81-11.58,5.47,5.47,0,0,0,.49-.76l4.14-8.06a5.12,5.12,0,0,0-2.21-6.89l-8.06-4.14a5.13,5.13,0,0,0-6.89,2.22l-4.14,8.06a5.05,5.05,0,0,0-.33.84A43.36,43.36,0,0,0,577,180.36a5.08,5.08,0,0,0-.19-.86l-2.74-8.64a5.11,5.11,0,0,0-6.41-3.34l-8.64,2.74a5.12,5.12,0,0,0-3.34,6.42l2.74,8.64a5.77,5.77,0,0,0,.34.81,43.38,43.38,0,0,0-11.58,9.81,4.69,4.69,0,0,0-.76-.49l-8.06-4.14a5.08,5.08,0,0,0-3.88-.33h0a5.13,5.13,0,0,0-3,2.53l-4.13,8.06h0a5.12,5.12,0,0,0,2.21,6.89l8.06,4.14a5.05,5.05,0,0,0,.84.33,43.36,43.36,0,0,0-1.26,14.71,5.55,5.55,0,0,0-.86.19l-8.64,2.73a5.12,5.12,0,0,0-3.34,6.42l2.74,8.64a5.12,5.12,0,0,0,6.42,3.34l8.64-2.74a5.77,5.77,0,0,0,.81-.34,43.38,43.38,0,0,0,9.81,11.58,4.94,4.94,0,0,0-.49.76l-4.14,8.06a5.11,5.11,0,0,0,2.21,6.88l8.06,4.14h0a5.11,5.11,0,0,0,6.89-2.21l4.14-8.06a5.84,5.84,0,0,0,.33-.84,43.11,43.11,0,0,0,14.71,1.25,5.42,5.42,0,0,0,.19.87l2.73,8.64a5.12,5.12,0,0,0,6.42,3.33l8.64-2.73a5.12,5.12,0,0,0,3.34-6.42l-2.74-8.64a5.31,5.31,0,0,0-.34-.81,43.57,43.57,0,0,0,11.58-9.81,4.94,4.94,0,0,0,.76.49l8.06,4.14A5.12,5.12,0,0,0,630,254.3l4.14-8.06a5.12,5.12,0,0,0-2.21-6.89l-8.06-4.14a5.05,5.05,0,0,0-.84-.33,43.11,43.11,0,0,0,1.25-14.71,5.42,5.42,0,0,0,.87-.19l8.64-2.74a5.11,5.11,0,0,0,3.33-6.41l-2.73-8.64A5.12,5.12,0,0,0,628,198.85Zm-40,48a24,24,0,1,1,15.66-30.14A24,24,0,0,1,588,246.81Z"/><path fill="#ffdfa6" d="M144.57,371.13,139,372.9a3.14,3.14,0,0,0-.53.23,28.25,28.25,0,0,0-6.35-7.5,3.17,3.17,0,0,0,.32-.49l2.68-5.22a3.33,3.33,0,0,0-1.43-4.46l-5.22-2.68a3.32,3.32,0,0,0-4.46,1.44l-2.68,5.22a2.52,2.52,0,0,0-.21.54,28.14,28.14,0,0,0-9.53-.81,2.66,2.66,0,0,0-.12-.56l-1.77-5.6a3.31,3.31,0,0,0-4.15-2.16l-5.6,1.77a3.32,3.32,0,0,0-2.15,4.16l1.76,5.59a3.14,3.14,0,0,0,.23.53,27.89,27.89,0,0,0-7.5,6.35,2.76,2.76,0,0,0-.49-.32l-5.22-2.68a3.27,3.27,0,0,0-2.51-.21h0a3.3,3.3,0,0,0-1.93,1.64l-2.68,5.22h0a3.31,3.31,0,0,0,1.43,4.46L86.08,380a3.55,3.55,0,0,0,.54.21,28.12,28.12,0,0,0-.81,9.53,2.66,2.66,0,0,0-.56.12l-5.6,1.77a3.31,3.31,0,0,0-2.15,4.15l1.77,5.6a3.31,3.31,0,0,0,4.15,2.15L89,401.8a2.47,2.47,0,0,0,.53-.22,28.25,28.25,0,0,0,6.35,7.5,2.76,2.76,0,0,0-.32.49l-2.68,5.22a3.25,3.25,0,0,0-.2,2.52,3.28,3.28,0,0,0,1.63,1.93l5.22,2.68h0a3.32,3.32,0,0,0,4.46-1.43l2.68-5.22a2.74,2.74,0,0,0,.21-.54,28.12,28.12,0,0,0,9.53.81,2.66,2.66,0,0,0,.12.56l1.77,5.6a3.31,3.31,0,0,0,4.15,2.15l5.6-1.77a3.3,3.3,0,0,0,2.15-4.15l-1.76-5.59a3.14,3.14,0,0,0-.23-.53,28.25,28.25,0,0,0,7.5-6.35,2.76,2.76,0,0,0,.49.32l5.22,2.68a3.31,3.31,0,0,0,4.46-1.44l2.68-5.21a3.32,3.32,0,0,0-1.44-4.46l-5.22-2.68a2.52,2.52,0,0,0-.54-.21,28.14,28.14,0,0,0,.81-9.53,2.66,2.66,0,0,0,.56-.12l5.6-1.77a3.3,3.3,0,0,0,2.15-4.15l-1.76-5.6A3.32,3.32,0,0,0,144.57,371.13Zm-25.89,31.05a15.55,15.55,0,1,1,10.14-19.51A15.57,15.57,0,0,1,118.68,402.18Z"/><text fill="#fff" font-family="Montserrat-Bold,Montserrat Bold" font-size="46.47" font-weight="700" transform="translate(192.3 307.52)">&lt;/&gt;</text><text fill="#fff" font-family="Montserrat-Bold,Montserrat Bold" font-size="45.25" font-weight="700" transform="translate(541.16 361.06)">C++</text><text fill="#fff" font-family="Montserrat-Bold,Montserrat Bold" font-size="37.76" font-weight="700" transform="translate(390.47 121.17)">J<tspan x="13.97" y="0" letter-spacing="-.05em">A</tspan><tspan x="35.08" y="0" letter-spacing="-.06em">V</tspan><tspan x="54" y="0">A</tspan></text></svg>