<svg xmlns="http://www.w3.org/2000/svg" enable-background="new 0 0 2000 2000" viewBox="0 0 2000 2000"><path fill="#546d8c" d="M1512.7,409.6c-8.3,0.6-15.8,0.8-21.8,0.9c6-7.1,11.6-14,16.9-20.7c12.5-15.8,23.8-31.4,33.8-46.1
			c13.5-1,58.6-8.7,99.4-64c48.6-66-0.7-185.2-0.7-185.2c-133.2,114.8-120.4,207.1-108.9,238.2c-10.7,15.7-22.9,32.7-36.7,50.1
			c-5.1,6.5-10.6,13.2-16.4,20c-1-4.6-1.8-9.8-2.4-15.9c25.9-26.8,70.6-103,9.6-257.2c0,0-99,82.8-86.5,163.8
			c12.5,81,61.9,104.8,61.9,104.8c0,0.2,0.7,0.1,1.7-0.5c1,6.6,2.4,12.7,4.3,18.1c-32.1,36-72.7,74.7-120.9,106.4
			c-2.5-4.8-4.4-10.1-5.9-15.8c24.5-18.2,88.3-89.8,31.9-261.9c0,0-103.8,76.7-96.2,158.3c5.9,63.5,36.2,93.8,49.4,104.1
			c1.9,8.5,4.7,16.3,8.4,23.2c-24.7,15.2-51.2,28.5-79.4,38.7c-3.8,1.4-5.8,5.6-4.4,9.4c0.6,1.5,1.6,2.8,2.9,3.6
			c1.9,1.2,4.3,1.6,6.5,0.8c30.1-10.8,58.2-25.1,84.3-41.3c3.4,2.1,9,5.4,16.2,8.9c-0.4,1-0.5,1.6-0.3,1.6c0,0,27,47.8,108.6,55
			c81.6,7.2,157.9-96.8,157.9-96.8c-161.6-52.3-234.4,0.8-257.7,28c-4.2-2-7.9-3.9-10.9-5.6c48.2-32.2,88.8-71,121.1-107.3
			c6.1,0.2,19.4,0.5,36-0.7c12.1,11.2,46.9,36.6,111,32.2c81.7-5.7,140.7-120.5,140.7-120.5C1587.3,308,1526.8,382.3,1512.7,409.6z"/><path fill="#546d8c" d="M1451.5,715.4c-3.7,2.8-6.9,5.5-9.4,7.6c5.1,0.8,10,1.6,14.6,2.4c11,2,21.4,4.4,31,6.8
			c6-4.5,27.6-17.8,64.8-9.8c44.4,9.6,67.6,77.3,67.6,77.3c-97.5,1-125.9-42.1-132.5-59.2c-10.2-2.6-21.5-5.2-33.6-7.4
			c-4.5-0.8-9.2-1.6-14.1-2.3c1.2,2.3,2.8,4.8,4.8,7.5c20.6,1.6,67.1,17,98.2,103.5c0,0-71.5,1.8-96-36.5
			c-24.5-38.3-12.7-66.3-12.7-66.3c-0.1-0.1,0.2-0.3,0.9-0.4c-2-3.1-3.6-6.2-4.9-9.1c-26.5-3.2-57.6-4.4-89.3,0
			c0.7,2.9,1.9,5.8,3.4,8.8c16.9-1.4,69.7,5,109.2,97.3c0,0-71.3,6.1-98-30.6c-20.8-28.6-19.3-52.3-17.6-61.4c-2.3-4.2-4-8.5-5-12.7
			c-15.8,2.7-31.7,6.9-47.2,13c-2.1,0.8-4.4-0.2-5.3-2.3c-0.3-0.8-0.4-1.7-0.1-2.6c0.3-1.2,1.2-2.2,2.4-2.7
			c16.5-6.5,33.4-10.9,50.2-13.7c0.6-2.2,1.8-5.5,3.5-9.7c-0.5-0.3-0.8-0.5-0.7-0.5c0,0-6.3-29.8,25-62.7
			c31.3-32.9,101.2-17.6,101.2-17.6c-48.1,80.9-97.8,85.5-117.5,82.8c-1,2.4-1.9,4.5-2.5,6.3c31.8-4.2,63-3,89.7,0.3
			c2.5-2.3,7.9-7.3,15.2-12.9c0.9-9.1,6.1-32.4,34.4-54c36.1-27.6,102.7-1.4,102.7-1.4C1519.7,730.3,1467.3,721.6,1451.5,715.4z"/><path fill="#d3daed" d="M1240.4,307.8v1305.8c0,55.5-45.1,100.8-101.8,103.6c-1.8,0.1-3.7,0.1-5.5,0.1H394.4c-1.9,0-3.7,0-5.5-0.1
			c-20.9-1-40.2-7.8-56.3-18.8c-27.5-18.8-45.5-49.8-45.5-84.8V307.8c0-57.3,48-103.7,107.3-103.7h738.7
			c58.7,0,106.3,45.5,107.3,102C1240.4,306.7,1240.4,307.2,1240.4,307.8z"/><path fill="#1a293b" d="M1193.5,92.2H334c-59.3,0-107.3,48-107.3,107.3v1601c0,59.3,48,107.3,107.3,107.3h859.4
			c59.3,0,107.3-48,107.3-107.3v-1601C1300.8,140.3,1252.8,92.2,1193.5,92.2z M1240.4,1610c0,57.4-45.1,104.3-101.8,107.2
			c-1.8,0.1-3.7,0.1-5.5,0.1H394.4c-1.9,0-3.7,0-5.5-0.1c-56.1-2.9-100.8-48.7-101.8-105.3V307.8c0-57.3,48-103.7,107.3-103.7h171.7
			v46.3c0,26.5,21.5,47.9,47.9,47.9h309.3c26.5,0,47.9-21.5,47.9-47.9v-46.3h161.9c58.7,0,106.3,45.5,107.3,102V1610z"/><path fill="#1a293b" d="M368.5,989.2h57.6c26.9,0,48.7,21.8,48.7,48.7v0c0,26.9-21.8,48.7-48.7,48.7h-86.3v31.9H458
			c26.9,0,48.7-21.8,48.7-48.7V1006c0-26.9-21.8-48.7-48.7-48.7h-57.6c-15.8,0-28.6-12.8-28.6-28.6v0c0-15.8,12.8-28.6,28.6-28.6
			h106.4v-31.9H368.5c-15.8,0-28.6,12.8-28.6,28.6v63.7C339.9,976.4,352.7,989.2,368.5,989.2z"/><path fill="#1a293b" d="M575.7,997.2h84.5v-31.9h-84.5V917c0-9.4,7.6-16.9,16.9-16.9h104.5v-31.9H560.8c-9.4,0-16.9,7.6-16.9,16.9
			v216.4c0,9.4,7.6,16.9,16.9,16.9h138.9v-31.9h-107c-9.4,0-16.9-7.6-16.9-16.9V997.2z"/><path fill="#f2f6ff" d="M1130.8,660.2H429.8c-33.5,0-60.6-27.1-60.6-60.6v-16.7c0-33.5,27.1-60.6,60.6-60.6h701.1
			c33.5,0,60.6,27.1,60.6,60.6v16.7C1191.4,633.1,1164.3,660.2,1130.8,660.2z"/><path fill="#1a293b" d="M517.5,551.5c-14-16.2-38.5-18.1-54.7-4.1c-14.3,12.3-17.4,32.9-8.3,48.7l-41.3,35.6
			c-3.1,2.6-3.4,7.3-0.8,10.3c1.4,1.7,3.5,2.5,5.6,2.5c1.7,0,3.4-0.6,4.8-1.8l12.6-10.8l10.9-9.4l17.9-15.4
			c14.3,11.4,35.1,11.3,49.4-1C529.7,592.2,531.5,567.7,517.5,551.5z M507.8,599.7L507.8,599.7c-9.8,8.5-23.6,9.5-34.3,3.6
			c-3.1-1.7-5.9-4-8.3-6.8c-8.1-9.4-9.4-22.3-4.3-32.8c1.2-2.6,2.9-5,4.9-7.2c0.8-0.9,1.7-1.7,2.6-2.5c12.6-10.9,31.7-9.4,42.6,3.2
			C521.9,569.7,520.4,588.8,507.8,599.7z"/><path fill="#1a293b" d="M1602.8,1041.5c1,5.2,51.4,323.1,51.4,323.1s-227.6-32.3-225.8-32.3s14.2-334,17.4-332.3
			C1448.9,1001.7,1602.8,1041.5,1602.8,1041.5z"/><path fill="#1a293b" d="M1413,1024.2c0,0,6.5-78,80.8-75c74.3,3,100.4,54,108.9,92.3c8.5,38.3,5.1,123.9-74.3,125.1
			C1449.1,1167.8,1413,1024.2,1413,1024.2z"/><rect width="51.1" height="97.2" x="1476.6" y="1144.5" fill="#f1baa4"/><path fill="#f1baa4" d="M1413,1054.6c0.7,1.8-2.4,44.5,11.4,77.5c6.4,15.2,16.3,28.3,32,34.4c8,3.1,17.4,4.4,28.5,3.2
			c0,0,55,6.1,77.5-57.3c0,0,23.1,0.4,28.8-24c5.6-24.4-11.9-34.4-25-21.9c0,0-8.4-74.4-75.2-73.1
			C1424.3,994.6,1413,1054.6,1413,1054.6z"/><path fill="#1a293b" d="M1533.8,1067.1c-0.6,0-1.2-0.2-1.7-0.6c-8.4-7.2-16-3.7-19.3-2.2c-1.4,0.6-2.9,1.3-4.3,0.1
			c-1.1-0.9-1.2-2.6-0.3-3.7c0.5-0.5,1.1-0.8,1.8-0.9c0.2-0.1,0.4-0.2,0.6-0.3c3.4-1.6,13.9-6.5,24.8,2.9c1.1,0.9,1.2,2.6,0.3,3.7
			C1535.2,1066.8,1534.5,1067.1,1533.8,1067.1z M1511.9,1060.5L1511.9,1060.5L1511.9,1060.5z M1511.9,1060.5L1511.9,1060.5
			L1511.9,1060.5z M1511.9,1060.5C1511.9,1060.5,1511.9,1060.5,1511.9,1060.5S1511.9,1060.5,1511.9,1060.5z M1511.9,1060.5
			C1511.9,1060.5,1511.9,1060.5,1511.9,1060.5L1511.9,1060.5z M1511.9,1060.5C1511.9,1060.5,1511.9,1060.5,1511.9,1060.5
			C1511.9,1060.5,1511.9,1060.5,1511.9,1060.5z M1511.9,1060.5C1511.9,1060.5,1511.9,1060.5,1511.9,1060.5
			C1511.9,1060.5,1511.9,1060.5,1511.9,1060.5z M1511.9,1060.5C1511.9,1060.5,1511.9,1060.5,1511.9,1060.5
			C1511.9,1060.5,1511.9,1060.5,1511.9,1060.5z M1511.9,1060.5L1511.9,1060.5L1511.9,1060.5z M1511.9,1060.5
			C1511.9,1060.5,1511.9,1060.5,1511.9,1060.5C1511.9,1060.5,1511.9,1060.5,1511.9,1060.5z M1511.9,1060.5L1511.9,1060.5
			L1511.9,1060.5z M1511.9,1060.5C1511.9,1060.5,1511.9,1060.5,1511.9,1060.5S1511.9,1060.5,1511.9,1060.5z M1511.9,1060.5
			C1511.9,1060.5,1511.9,1060.5,1511.9,1060.5C1511.9,1060.5,1511.9,1060.5,1511.9,1060.5z M1511.9,1060.5L1511.9,1060.5
			L1511.9,1060.5z"/><path fill="#1a293b" d="M1427.3,1076.4c-0.5,0-1.1-0.2-1.5-0.5c-1.2-0.8-1.4-2.5-0.6-3.6c0.4-0.5,9.7-13,26.3-8.4
			c1.4,0.4,2.2,1.8,1.8,3.2c-0.4,1.4-1.8,2.2-3.2,1.8c-13.2-3.6-20.7,6.4-20.8,6.5C1428.9,1076,1428.1,1076.4,1427.3,1076.4z"/><path fill="#1a293b" d="M1483.2,1131.2c-2.1,0-7.7-0.8-11.6-8.6c-3.8-7.7,2.9-18.5,5.7-23c0.3-0.6,0.6-1,0.8-1.3
			c0.3-1,1.1-1.7,2.2-1.8c1.4-0.1,2.7,0.9,2.8,2.3c0.1,1-0.3,1.7-1.4,3.5c-2.2,3.5-8,12.8-5.5,18c3,6.1,6.9,5.8,7.1,5.8
			c1.4-0.1,2.7,0.9,2.9,2.3c0.2,1.4-0.8,2.7-2.2,2.9C1484,1131.2,1483.7,1131.2,1483.2,1131.2z M1478,1099.3
			C1478,1099.3,1478,1099.3,1478,1099.3C1478,1099.3,1478,1099.3,1478,1099.3z M1478,1099.3C1478,1099.3,1478,1099.3,1478,1099.3
			C1478,1099.3,1478,1099.3,1478,1099.3z"/><path fill="#1a293b" d="M1484.5,1154.8c-6.4-0.6-13-4.4-13.7-6.4c-0.5-1.4,0.3-2.8,1.6-3.3c1.1-0.4,2.2,0,2.9,0.8
			c1,0.8,7,4.7,13.4,3.6c4.5-0.8,8.1-4,10.9-9.4c0.7-1.3,2.2-1.8,3.5-1.1c1.3,0.7,1.8,2.2,1.1,3.5c-5.6,11-13.6,12.8-19.3,12.4
			C1484.8,1154.9,1484.7,1154.8,1484.5,1154.8z M1475.8,1146.7C1475.8,1146.7,1475.8,1146.7,1475.8,1146.7
			C1475.8,1146.7,1475.8,1146.7,1475.8,1146.7z M1475.8,1146.7C1475.8,1146.7,1475.8,1146.7,1475.8,1146.7
			C1475.8,1146.7,1475.8,1146.7,1475.8,1146.7z"/><ellipse cx="1520.4" cy="1086.8" fill="#1a293b" rx="9.4" ry="10.9" transform="rotate(-5.902 1521.164 1086.881)"/><circle cx="1522.7" cy="1083.6" r="4.3" fill="#f2f6ff"/><ellipse cx="1443.4" cy="1094.8" fill="#1a293b" rx="9.4" ry="10.9" transform="rotate(-5.902 1444.125 1094.876)"/><circle cx="1445.7" cy="1091.6" r="4.3" fill="#f2f6ff"/><path fill="#1a293b" d="M1566.2,1066.5v25.1c0,0-17-31.1-17.5-43.5h-41l-13.8-15.7l-4.1,15.7l-22.5,3.3l-7.1-31.5l-10.2,32l-37,8.6
			c0,0-13.5-0.5,0-36.3s54.5-47.8,89.6-42.9c35.1,4.9,63.7,41.4,63.5,54.6C1566,1049.1,1566.2,1066.5,1566.2,1066.5z"/><path fill="#d3daed" d="M1375.6,1390.8c0.1,4.5,0.2,8.9,0.4,13.3c1.7,60.8,4.3,115.4,4.3,115.4l49.5,13.8l76.7,21.3l13-6.7l71.5-36.9
			c0,0,7.1-49,13.3-106v-0.1c7.9-72.6,14.2-157.9,2.6-171.2c-18.4-21.1-37.5-15.4-51.7-24.6c-1.8-1.2-3.5-2.6-5.2-4.4
			c-14.5-15.6-19-30-19-30c-1.7,1-34.8,23.8-60.7,12.4c0,0,7.2,23.8-15.5,25.9c-6.8,0.6-15.6,0.8-24.9,1.6
			c-17.8,1.6-37.2,5.6-47,20.1c-0.1,0.1-0.1,0.2-0.2,0.3c-2,2.9-3.5,6.3-4.6,10.1C1373.6,1261.3,1374,1327.4,1375.6,1390.8z"/><path fill="#1a293b" d="M1591,1511c0,0-144.9-15.8-210.7,8.5c0,0-24.5,36.3-31.1,112.1c-13.5,154.3,13.8,269.9,14.4,267.1l267.4,1.8
			c0,0,12.5-236-5.2-290.4C1608.1,1555.6,1591,1511,1591,1511z"/><path fill="#546d8c" d="M1519.5,1547.9c1.5,12.8,2.5,20.5,2.5,20.5l87,9.1l13.4,1.4l-2-19.3l-16.2-154.5l57,53.3l10.4-15.2l48.1-70.4
			l5.6-8.2l-118.5-130.9l0,0.1v-0.1c-18.4-21.1-37.5-15.3-51.7-24.6c-1.1,2-41.4,76.8-45.6,155.6
			C1506.3,1424.6,1515,1509.4,1519.5,1547.9z"/><path fill="#546d8c" d="M1310.3,1357.3l72.5-123.1c0,0,0,0.1,0.1,0.4c9.8-14.5,29.2-18.6,47-20.1c0,0,9.1,54.9,9.1,129.5
			c0,52.5-5.3,141.3-9.2,189.2c-1.7,20-3,32.9-3.7,32.9c-2.3,0-73,0-73,0l21.9-160.9C1335.1,1414.4,1310.3,1357.3,1310.3,1357.3z"/><path fill="#1a293b" d="M1500.1,1230.6c8.9,0,17-2.1,23.3-5.1c5-2.4,10.4-6.2,10.8-9.9c0.1-0.9-0.6-1.8-1.5-1.9
			c-0.9-0.1-1.8,0.6-1.9,1.5c-0.1,1.2-2.7,4.2-8.9,7.2c-12.4,5.9-32.3,8-50.6-3.8c-0.8-0.5-1.8-0.3-2.3,0.5
			c-0.5,0.8-0.3,1.8,0.5,2.3C1479.7,1228.1,1490.4,1230.6,1500.1,1230.6z"/><path fill="#f2f6ff" d="M1443.4,1533.8h66.1c0.9,0,1.7-0.8,1.7-1.7s-0.8-1.7-1.7-1.7h-66.1c-0.9,0-1.7,0.8-1.7,1.7
			S1442.4,1533.8,1443.4,1533.8z"/><path fill="#f1baa4" d="M1610.4,1645.2c-2.5-0.4-8-11.8-10.9-32.1c-2-14.3,3.6-25.6,7.1-31.5c0,0,0.9-1.5,2.5-4.1
			c1.9-3,4.8-7.7,8.5-13.4c0.9-1.4,1.9-2.9,2.9-4.4c6.7-10.2,15.4-23.1,25.4-37c10.6-14.7,39.1-43.4,52.2-56.6l-26.4-22.8l48.1-70.4
			l23.3,20.7c40.6,36,40.2,99.6-0.8,135.1c-15.7,13.6-29.2,25.1-35,29.6c-24.2,19-41.4,32.4-51.5,40.1c4.7,19.7,9.7,41.8,9.8,48.3
			c0.2,12.4-13.7,40.5-18.9,51.1c-5.2,10.6-12.1,19-16.8,15.8c-4.6-3.1-3-7.2-2.9-7.4c-0.1,0.1-5.3,4.6-10.1,3.4
			c-4.7-1.2-1.6-11.1-1.5-11.6c-0.2,0.2-3.4,3.4-8.7-0.7c-5.4-4.2,0.2-15,0.2-15c-9.5,5.2-10.4-5.7-10.4-5.7
			S1612.9,1645.5,1610.4,1645.2z"/><path fill="#1a293b" d="M1628.3,1703.7c0-0.1-0.1-0.3-0.1-0.4c0-0.6,0.2-1.1,0.6-1.5c1.3-2.1,8.1-17.9,12.7-28.5
			c6.8-15.9,7.1-16.5,7.6-17c0.7-0.7,1.8-0.7,2.5,0c0.6,0.6,0.7,1.6,0.2,2.3c-0.6,1-3.9,8.7-7,16.1c-12.9,30-13,30-14.6,30.2
			C1629.3,1705,1628.6,1704.4,1628.3,1703.7z"/><path fill="#1a293b" d="M1616.9,1694.8c-0.1-0.4-0.1-0.9,0.1-1.3c5.9-12,15.5-31.6,16.3-34c0.1-0.4,0.2-0.8,0.6-1.1
			c0.7-0.6,1.9-0.6,2.5,0.2c1,1.2,1.2,1.3-16.2,36.5c-0.4,0.9-1.5,1.2-2.4,0.8C1617.3,1695.6,1617,1695.3,1616.9,1694.8z"/><path fill="#1a293b" d="M1607.5,1679.8c-0.2-0.4-0.1-1,0.1-1.4c3.3-6.1,12-22.3,12.9-24.4c0.4-0.9,1.4-1.3,2.3-1
			c0.9,0.4,1.3,1.4,1,2.3c-1.1,2.7-12.6,23.9-13,24.8c-0.5,0.9-1.5,1.2-2.4,0.7C1608,1680.6,1607.7,1680.2,1607.5,1679.8z"/><path fill="#546d8c" d="M820.5,1167.3c82.5,71,202.1,71.1,284.3,5.8l102.9,88.5l62.5,53.9l72.3,62.2c8,6.8,17.7,10.2,27.5,10.2
			c11.9,0,23.6-5,31.9-14.7c15.2-17.6,13.2-44.2-4.4-59.4l-237.7-204.6c52.3-91,34.5-209.2-48-280.2
			c-93.4-80.4-234.4-69.9-314.8,23.6C716.5,945.9,727,1086.9,820.5,1167.3z M834.3,884.7c62.6-72.6,172.5-80.9,245.1-18.3
			c5.4,4.6,10.4,9.6,15.1,14.7c11.6,12.7,21,26.7,28.1,41.7c29,60.4,21.6,134.9-24.9,188.8c-13.9,16.2-30.3,29.2-48,39
			c-61.7,33.8-140.7,28-197.1-20.6l-0.1-0.1C780,1067.2,771.8,957.3,834.3,884.7z"/><path fill="#f1baa4" d="M1315.5,1367.4l-9,12.8c0,0-2.2-21.8-15.7-54.8c-13.4-33-26.3-43-21.2-52s43.3-25.2,40.6-43.6
			c-2.6-18.4-15.5-34.7-31.7-29.6c-16.2,5-21.8,7.9-21.8,7.9s6.1-30.8-3.4-29.2c-9.5,1.7-10.1,37.5-11.2,66.5
			c-1.1,29.1-1.1,29.1-1.1,29.1s-1.1,115.1,26.3,148.1c27.4,33,58.7,29.6,77.1,10.1c18.4-19.6,20.3-26.5,20.3-26.5L1315.5,1367.4z"/><path fill="#1a293b" d="M1265.3,1221.8c-0.7,0-1.3-0.4-1.5-1.1c-0.3-0.8,0.2-1.7,1-2l28-9.7c0.8-0.3,1.7,0.2,2,1c0.3,0.8-0.2,1.7-1,2
			l-28,9.7C1265.6,1221.8,1265.4,1221.8,1265.3,1221.8z"/><path fill="#1a293b" d="M1269.8,1233c-0.7,0-1.3-0.4-1.5-1.1c-0.3-0.8,0.2-1.7,1-2l30-9.7c0.8-0.3,1.7,0.2,2,1c0.3,0.8-0.2,1.7-1,2
			l-30,9.7C1270.1,1233,1270,1233,1269.8,1233z"/><path fill="#1a293b" d="M1281.1,1245.3c-0.6,0-1.2-0.3-1.4-0.9c-0.4-0.8,0-1.7,0.8-2.1l23-10.9c0.8-0.4,1.7,0,2.1,0.8
			c0.4,0.8,0,1.7-0.8,2.1l-23,10.9C1281.6,1245.2,1281.3,1245.3,1281.1,1245.3z"/></svg>